<?xml version="1.0" encoding="UTF-8"?> <!-- Generator: Adobe Illustrator 24.1.0, SVG Export Plug-In . SVG Version: 6.00 Build 0) --> <svg xmlns="http://www.w3.org/2000/svg" xmlns:xlink="http://www.w3.org/1999/xlink" version="1.1" id="Слой_1" x="0px" y="0px" viewBox="0 0 2500 2500" style="enable-background:new 0 0 2500 2500;" xml:space="preserve"> <style type="text/css"> .st0{fill:#E6CCA7;} .st1{fill:none;} .st2{fill:#DD909A;} .st3{fill:#EDA5AB;} </style> <g> <g> <path class="st0" d="M1287.2,1076.1c1-2,2.4-2.2,4.1-0.5c1.7,1.7,3.1,4.2,4.3,7.6c1.2,3.4,1.9,7,2.3,10.9c0.3,3.9-0.2,6.8-1.5,8.9 c-12.9,22.3-26.5,44-40.8,64.9c-14.4,21-31,40.4-50,58.3c-20.3,18.9-40.5,30.2-60.6,33.7c-20.1,3.5-38,0.3-53.5-9.6 c-15.6-10-27.7-26.2-36.5-48.7c-8.8-22.5-12-50.3-9.6-83.4c1.7-23,6-46.5,12.9-70.5c6.9-24,15.8-47.1,26.6-69.2 c10.8-22.1,23.2-42.6,37-61.4c13.9-18.8,28.6-34.4,44.1-46.9c15.5-12.5,31.6-21,48.2-25.6c16.6-4.6,32.8-3.8,48.7,2.3 c15.2,5.8,25.4,14.8,30.7,27.1c5.2,12.3,6.9,25.9,5.1,40.6c-1.9,14.7-6.5,29.6-13.9,44.6c-7.4,15-16.2,28.3-26.4,39.8 c-3.4,3.4-7.4,5.5-12.2,6.3c-4.7,0.8-9.1,0.9-13.2,0.3c-4.1-0.7-7-1.9-8.9-3.5c-1.9-1.7-1.6-3.6,0.8-5.6 c4.1-4.4,8.6-10.5,13.7-18.3c5.1-7.8,9.7-16.1,13.9-25.1c4.2-9,7.7-17.8,10.4-26.4c2.7-8.6,3.9-15.8,3.5-21.6 c-1.4-13.5-5.6-20.6-12.7-21.3c-7.1-0.7-16,3.5-26.6,12.4c-10.7,9-22.1,21.8-34.5,38.5c-12.3,16.7-24.2,35.5-35.5,56.3 c-11.3,20.8-21.6,42.7-30.7,65.7c-9.1,23-15.6,45.3-19.3,66.9c-3.7,20.3-4,37.9-0.8,52.7c3.2,14.9,9.1,25.9,17.8,33 c8.6,7.1,19.4,9.7,32.5,7.9c13-1.9,27.6-9.4,43.9-22.6c19.3-15.5,36-33.6,50.2-54.3C1264.8,1119.9,1277,1098.4,1287.2,1076.1z"></path> <path class="st0" d="M1500.7,1124.8c1-2,3-3.3,6.1-3.8c3-0.5,5.9-0.6,8.6-0.3c2.7,0.3,5.1,1.1,7.1,2.3c2,1.2,2.5,2.3,1.5,3.3 c-7.1,15.6-14.8,29.8-23.1,42.6c-8.3,12.9-17.3,25.5-27.1,38c-12.9,16.2-25.5,27.7-38,34.5c-12.5,6.8-23.6,8.9-33.2,6.3 c-9.6-2.5-17-9.6-22.1-21.3c-5.1-11.7-6.6-27.8-4.6-48.4c1.7-17.2,4.4-33.8,8.1-49.7c3.7-15.9,7.9-30.6,12.7-44.1 c-4.4,4.7-9.2,10.9-14.5,18.5c-5.2,7.6-11.2,17.1-18,28.4c-6.8,11.3-14.5,24.8-23.3,40.3c-8.8,15.6-18.9,33.8-30.4,54.8 c-0.7,4.4-1.4,8.1-2.3,11.2c-0.8,3-1.9,5.1-3.3,6.1c-1.7,1.7-4.4,2.5-8.1,2.3c-3.7-0.2-7.6-1.1-11.7-2.8 c-4.1-1.7-8.1-4.1-12.2-7.1c-4.1-3-7.3-6.8-9.6-11.2c-3.4-8.8-4.3-22.4-2.8-40.8c1.5-18.4,4.8-39.6,9.9-63.4 c5.1-23.8,11.4-49,19-75.6c7.6-26.5,15.9-52.3,24.9-77.3c9-25,18-48.1,27.1-69.2c9.1-21.1,17.8-38.1,25.9-51 c1.7-2.7,4.8-4.4,9.4-5.1c4.6-0.7,9.6-0.4,15.2,0.8c5.6,1.2,11.3,2.9,17.2,5.1c5.9,2.2,11,4.7,15.2,7.6c4.2,2.9,7.3,6,9.1,9.4 c1.9,3.4,1.8,6.4-0.3,9.1c-4.4,5.8-11.1,16.7-20,32.7c-9,16.1-18.9,36.4-29.7,61.1c-10.8,24.7-21.8,53.1-33,85.2 c-11.2,32.1-20.8,67.1-28.9,105c10.5-14.5,20.3-29.7,29.4-45.4c9.1-15.7,18-30.4,26.6-44.1c8.6-13.7,17.4-25.8,26.4-36.3 c9-10.5,18.5-17.9,28.7-22.3c9.5-3.4,19.3-3.8,29.4-1.3c10.1,2.5,18.8,7.2,25.9,13.9c1.7,1.7,1.9,3.4,0.5,5.1 c-3,4.1-7.1,10.8-12.2,20.3c-5.1,9.5-10.3,20.6-15.7,33.5c-5.4,12.9-10.7,27.1-16,42.6c-5.2,15.6-9.6,31.6-12.9,48.2 c-5.8,26.7-4.8,40.7,2.8,42.1c7.6,1.4,20.9-12.7,39.8-42.1c4.7-7.8,9.2-15.5,13.4-23.3C1492,1141.4,1496.3,1133.3,1500.7,1124.8z"></path> <path class="st0" d="M1614.8,1124.8c1-2,3-3.3,6.1-3.8c3-0.5,5.9-0.6,8.6-0.3c2.7,0.3,5.1,1.1,7.1,2.3c2,1.2,2.5,2.3,1.5,3.3 c-7.1,15.6-14.9,29.8-23.3,42.6c-8.5,12.9-17.6,25.5-27.4,38c-13.5,17.6-26.5,29.6-39.1,36c-12.5,6.4-23.3,8-32.5,4.8 c-9.1-3.2-16.1-11-20.8-23.3c-4.7-12.3-6.1-28.5-4.1-48.4c2.4-22.6,6.3-44.1,11.9-64.4c5.6-20.3,11.4-38.1,17.5-53.5 c6.1-15.4,11.9-27.9,17.5-37.5c5.6-9.6,9.4-15,11.4-16c9.8-3.4,19.9-3.8,30.2-1.3c10.3,2.5,19.2,7.4,26.6,14.5 c0.7,0.7,1,1.5,1,2.5c0,1-0.3,1.9-1,2.5c-3,4.4-7.2,11.3-12.4,20.8c-5.2,9.5-10.7,20.8-16.2,34c-5.6,13.2-11.1,27.7-16.5,43.6 c-5.4,15.9-9.8,32.3-13.2,49.2c-2.7,13.2-3.9,23.4-3.6,30.7c0.3,7.3,2.2,11.2,5.6,11.7c3.4,0.5,8.3-2.4,14.7-8.9 c6.4-6.4,14.2-16.9,23.3-31.4c5.1-7.8,9.6-15.5,13.7-23.3C1605.6,1141.4,1610,1133.3,1614.8,1124.8z M1616.8,846.9 c8.8-3.4,17.1-4.4,24.9-3c7.8,1.4,14.4,3.6,19.8,6.6c5.4,3,9.4,6.4,11.9,10.1c2.5,3.7,2.8,6.3,0.8,7.6c-2.7,1.7-5,4.1-6.8,7.1 c-1.9,3-3.6,6.1-5.3,9.1c-1,2-3.4,6.6-7.1,13.7c-3.7,7.1-7.6,14.6-11.7,22.6c-4.1,7.9-7.8,15-11.2,21.3c-3.4,6.3-5.2,9.6-5.6,9.9 c-7.1,1.7-14.1,1.3-21-1.3c-6.9-2.5-12.8-6.7-17.5-12.4c-1-1.7-2-3.5-2.8-5.3c-0.8-1.9-1.1-3.6-0.8-5.3c-0.3-3.7,0.9-9.9,3.8-18.5 c2.9-8.6,6.2-17.5,9.9-26.6c3.7-9.1,7.4-17.2,10.9-24.1C1612.5,851.4,1615.1,847.6,1616.8,846.9z"></path> <path class="st0" d="M1798.9,1123.8c1-1.7,3-3,6.1-4.1c3-1,6-1.5,8.9-1.5c2.9,0,5.2,0.4,7.1,1.3c1.9,0.8,2.3,2.3,1.3,4.3 c-7.8,18.3-16.6,34.7-26.4,49.4c-9.8,14.7-20,28.8-30.4,42.3c-14.9,18.9-30.1,31.4-45.6,37.3c-15.6,5.9-30.2,7.6-43.9,5.1 c-13.7-2.5-25.6-8-35.8-16.5c-10.1-8.4-17.2-17.6-21.3-27.4c-5.1-12.5-8-26.2-8.9-41.1c-0.8-14.9,0.1-30,2.8-45.4 c2.7-15.4,6.9-30.7,12.7-45.9c5.7-15.2,12.8-29.2,21-41.8c8.3-12.7,17.6-23.6,27.9-32.7c10.3-9.1,21.4-15.7,33.2-19.8 c16.2-5.4,30.3-6.2,42.3-2.3c12,3.9,21.4,10.2,28.1,19c3.7,4.4,7.2,9.8,10.4,16.2c3.2,6.4,4.5,13.4,3.8,20.8c0,3.7-0.8,7-2.5,9.9 c-1.7,2.9-4.1,5.2-7.1,6.8c-2.4,1.7-4.8,2.6-7.4,2.8c-2.5,0.2-5.2,0.4-7.9,0.8c-2.4,0-4.2-0.2-5.6-0.5c-2-0.7-3-1.4-3-2.3 c0-0.8,0.5-1.9,1.5-3c1-1.2,2.2-2.9,3.5-5.1c1.3-2.2,2.5-4.8,3.6-7.9c0.7-2.7,0.8-5.4,0.5-8.1c-0.3-2.7-1.4-5.1-3-7.1l-3.5-3 c-1.7,0-3.9,0.3-6.6,1c-7.8,1.7-15.7,6.3-23.8,13.7c-8.1,7.4-15.7,16.6-22.8,27.4c-7.1,10.8-13.4,22.7-19,35.5 c-5.6,12.9-9.6,25.5-11.9,38c-3,14.9-3.9,27.9-2.5,39.1c1.3,11.2,4.2,20.6,8.6,28.4c7.8,11.8,16.6,17.1,26.6,15.7 c10-1.3,20.1-6.8,30.4-16.2c10.3-9.5,20.6-21.7,30.9-36.8C1781.5,1155.1,1790.7,1139.7,1798.9,1123.8z"></path> <path class="st0" d="M2008.8,1124.8c1-2,3-3.3,6.1-3.8c3-0.5,5.9-0.6,8.6-0.3c2.7,0.3,5.1,1.1,7.1,2.3c2,1.2,2.5,2.3,1.5,3.3 c-7.1,15.6-14.8,29.8-23.1,42.6c-8.3,12.9-17.3,25.5-27.1,38c-6.4,8.1-13.6,15.6-21.6,22.6c-7.9,6.9-16.8,12.6-26.6,17v-0.5 c-6.1,3-12.7,5.1-19.8,6.1c-6.8,1-13.4-1.8-20-8.4s-12.7-15.1-18.3-25.6c-5.6-10.5-10.5-21.7-14.7-33.7c-4.2-12-7.4-22.7-9.4-32.2 c-1.7,7.4-3.3,15-4.8,22.8c-1.5,7.8-3,15.6-4.3,23.3c-1.7,9.8-3,19.3-3.8,28.4c-0.8,9.1-2.6,14.7-5.3,16.7 c-1.7,1.7-4.4,2.5-8.1,2.3c-3.7-0.2-7.6-1.1-11.7-2.8c-4.1-1.7-8.1-4.1-12.2-7.1c-4.1-3-7.3-6.8-9.6-11.2 c-3.4-8.8-4.3-22.4-2.8-40.8c1.5-18.4,4.8-39.6,9.9-63.4c5.1-23.8,11.4-49,19-75.6c7.6-26.5,15.9-52.3,24.9-77.3 c9-25,18-48.1,27.1-69.2c9.1-21.1,17.7-38.1,25.9-51c1.7-2.7,4.8-4.4,9.4-5.1c4.6-0.7,9.6-0.4,15.2,0.8c5.6,1.2,11.3,2.9,17.2,5.1 c5.9,2.2,11,4.7,15.2,7.6c4.2,2.9,7.3,6,9.1,9.4c1.9,3.4,1.8,6.4-0.3,9.1c-3.7,5.1-9.2,13.9-16.5,26.6 c-7.3,12.7-15.5,28.7-24.6,47.9c-9.1,19.3-18.5,41.6-28.1,66.9c-9.6,25.4-18.7,53.1-27.1,83.2c3.4-6.1,6.8-12.1,10.1-18 c3.4-5.9,6.8-11.7,10.1-17.5c3-5.4,6.5-11.2,10.4-17.2c3.9-6.1,8.1-12,12.7-17.8c4.6-5.7,9.8-10.9,15.7-15.5 c5.9-4.6,12.4-8.2,19.5-10.9c6.1-2,12.4-3,19-3c6.6,0,12.8,1.4,18.5,4.1c4.7,1,8.4,3.7,11.2,8.1c2.7,4.4,4.6,9,5.6,13.7 c2.7,10.5,3.1,21.6,1.3,33.2c-1.9,11.7-6.3,23.1-13.4,34.2c-7.1,11.2-16.9,21.3-29.4,30.4c-12.5,9.1-28.1,16.4-46.7,21.8 c2.4,9.8,5.2,19.3,8.4,28.4c3.2,9.1,6.8,16.9,10.7,23.3c3.9,6.4,8.2,10.7,12.9,12.9c4.7,2.2,9.6,1.1,14.7-3.3 c6.1-6.1,11.8-13.1,17.2-21c5.4-7.9,10.4-15.8,15-23.6c4.6-7.8,8.5-14.9,11.9-21.3C2004.1,1133.6,2006.8,1128.5,2008.8,1124.8z M1901.3,1080.2c-5.4,8.5-10.7,16.9-15.7,25.4c-5.1,8.5-10.3,16.9-15.7,25.4c14.5-2.7,27.1-7.6,37.8-14.7 c10.7-7.1,19.4-15,26.1-23.8c6.8-8.8,11.5-17.8,14.2-27.1c2.7-9.3,3.2-17.5,1.5-24.6c-1.4-8.8-5.6-11-12.7-6.6 c-7.8,6.4-14.4,13.6-19.8,21.6C1911.6,1063.5,1906.4,1071.7,1901.3,1080.2z"></path> <path class="st0" d="M2157.9,1124.8c1-2,3-3.3,5.8-3.8c2.9-0.5,5.7-0.6,8.4-0.3c2.7,0.3,5.1,1,7.1,2c2,1,2.7,2.2,2,3.5 c-7.8,17.2-15.6,32.3-23.3,45.1c-7.8,12.9-16.6,25.5-26.4,38l-3,4.1c-1.7,5.8-4,11.1-6.8,16c-2.9,4.9-6.2,9.4-9.9,13.4 c-8.8,9.8-19,16.4-30.7,19.8c-11.7,3.4-23.4,4.3-35.2,2.8c-11.8-1.5-23-5.2-33.5-10.9c-10.5-5.8-18.6-12.8-24.3-21.3 c-6.8-10.1-9.6-21.1-8.6-33c-0.3-5.4,2.1-14.8,7.4-28.1c5.2-13.4,14.1-33,26.6-59.1c10.8-22.3,19.9-40.1,27.1-53.3 c7.3-13.2,13.6-23.2,19-29.9c2.7-4.4,5.9-9,9.6-13.9c3.7-4.9,7.4-8.2,11.2-9.9c4.4-2.4,9.5-3.3,15.2-2.8 c5.7,0.5,11.2,1.6,16.5,3.3c5.2,1.7,10,3.8,14.2,6.3c4.2,2.5,7,4.8,8.4,6.8c1.3,2.4,0.8,5.9-1.5,10.7c-2.4,4.7-4.6,7.8-6.6,9.1 c-2,1-4.1,1.8-6.1,2.3c-2,0.5-4.1,1.2-6.1,2c-2,0.8-4.1,2.4-6.3,4.6c-2.2,2.2-4.3,5.5-6.3,9.9c-2.4,5.4-3.6,11.1-3.6,17 c0,5.9,0.8,11.7,2.3,17.2c1.5,5.6,3.5,10.9,5.8,16c2.4,5.1,4.6,9.5,6.6,13.2c5.1,9.8,9,18.9,11.9,27.1c2.9,8.3,5,16.3,6.3,24.1 v-0.5c5.1-7.8,9.6-15.5,13.7-23.3C2148.8,1141.4,2153.2,1133.3,2157.9,1124.8z M2035.2,1122.3c-4.4,8.8-8.5,17.3-12.4,25.6 c-3.9,8.3-7.4,16-10.4,23.1c4.4,0,8.8,0.6,13.2,1.8c4.4,1.2,8.9,2.7,13.4,4.6c4.6,1.9,9.5,4.1,14.7,6.6c5.2,2.5,11.1,5,17.5,7.4 c-0.7-7.4-2-14.6-4.1-21.6c-2-6.9-3.9-13.3-5.6-19c-3-8.8-5.8-17.7-8.1-26.6c-2.4-9-4.4-17.8-6.1-26.6c-1.7,3.7-3.6,7.6-5.8,11.7 C2039.3,1113.1,2037.2,1117.5,2035.2,1122.3z M2016.9,1224.7c2.7,4.7,6.1,8,10.1,9.9c4.1,1.9,8.3,2.5,12.7,2 c4.4-0.5,8.7-1.9,12.9-4.3c4.2-2.4,7.7-5.6,10.4-9.6c2-2.7,3.6-5.4,4.6-8.1c-10.1-3-20.5-7.1-30.9-12.2 c-6.4-3.4-11.3-4.6-14.7-3.6c-3.4,1-5.8,3-7.1,5.8c-1.4,2.9-1.8,6.3-1.3,10.1C2014.1,1218.7,2015.2,1222,2016.9,1224.7z"></path> </g> <g> <g> <path d="M1444.9,1416c0.3-1.9,1.5-2.7,3.7-2.5c2.2,0.2,4.9,1.2,8.2,2.8c3.2,1.6,6.7,3.7,10.3,6.3c3.6,2.6,7,5.3,9.9,8.1 c3,2.8,5.3,5.5,7,8.1c1.7,2.6,2.3,4.6,1.8,6c-9.9,27.2-20.6,52.7-32.2,76.5c-11.6,23.9-23.8,46.9-36.7,69 c-12.9,22.1-26.3,43.7-40.4,64.8c-14,21.1-28.5,42.5-43.3,64.3c-0.8,2.6-4,5-9.8,7.4c-5.7,2.3-11.9,3.6-18.5,3.9 c-6.6,0.2-12.7-1.1-18.3-3.9c-5.6-2.8-8.5-8.2-8.8-16.2c0-1.6-0.3-5.9-0.8-12.6c-0.5-6.8-0.7-16.2-0.4-28.3 c0.3-12.1,1.3-26.8,3.1-44.2c1.8-17.4,4.9-37.7,9.4-60.9c-13.3,26.2-26.2,52.4-38.8,78.5c-12.6,26.1-26.3,52.3-41.2,78.5 c-4.2,2.1-8.8,3.3-14,3.5c-5.2,0.2-10.4-0.2-15.6-1.4c-5.2-1.2-10.1-3.1-14.6-5.8c-4.6-2.7-8.1-5.8-10.7-9.3 c-3.4-5.6-4.8-11.7-4.3-18.3c0.5-6.6,1.4-12.9,2.7-19c7.3-32.8,15.4-65.1,24.4-96.9c9-31.8,18.9-63.7,29.8-95.5 c2.1-5.4,3.7-10.9,4.9-16.7c1.2-5.7,0.8-11.1-1-16c-10.4,3.3-20.2,7.7-29.5,13.3c-9.2,5.6-17.5,12.2-24.8,19.7 c-12,12.4-20.5,26.7-25.7,43c-5.2,16.3-6.4,32.5-3.5,48.6c-4.4,2.1-9,2.1-13.7,0c-4.7-2.1-9-5.6-12.9-10.5 c-3.9-4.9-7-10.9-9.4-18.1c-2.3-7.1-3.5-14.9-3.5-23.3c0-9.8,2.1-19.3,6.4-28.4c4.3-9.1,9.9-17.4,17-24.9 c7.3-8,15.8-15.3,25.6-21.9c9.8-6.7,20.1-12.1,31-16.2c10.9-4.1,22-6.6,33.2-7.5c11.2-0.9,21.8,0.2,32,3.5 c8.6,1.9,15.5,6.3,20.7,13.2c5.2,6.9,8.2,14.2,9,21.9c0.8,8.2,0.1,16.2-2.1,24c-2.2,7.8-4.7,15.5-7.6,23 c-8.1,22.2-15.3,43.5-21.7,63.7c-6.4,20.2-11.8,38.4-16.2,54.4c-4.4,16-7.9,29.3-10.3,39.7c-2.5,10.4-4,17-4.5,19.8 c22.1-36.3,42.8-73,62.2-110.2c19.4-37.2,38.8-74.5,58.3-112c2.1-4.2,4.1-8.4,6-12.6c2-4.2,4.1-8.3,6.4-12.3 c1.6-2.8,5.6-4.2,12.1-4c6.5,0.1,13.2,1.2,20.1,3.2c6.9,2,12.8,4.4,17.7,7.4c4.9,2.9,6.5,5.8,4.7,8.6 c-6.2,6.8-12.4,17.6-18.5,32.3c-6.1,14.7-11.8,31.7-17,50.9c-5.2,19.2-9.9,39.6-14,61.1c-4.2,21.5-7.3,42.5-9.4,62.8 c13.8-16.2,27-34.7,39.6-55.6c12.6-20.9,24.1-42.4,34.3-64.3c10.3-21.9,19-43.5,26.3-64.8 C1436.6,1452.3,1441.8,1433.1,1444.9,1416z"></path> <path d="M1613.8,1619.6c0.8-1.4,2.3-2.3,4.7-2.6c2.3-0.4,4.5-0.4,6.6-0.2c2.1,0.2,3.9,0.8,5.5,1.6c1.6,0.8,1.9,1.6,1.2,2.3 c-5.5,11-11.4,20.9-17.7,29.7c-6.4,8.8-13.3,17.5-20.9,26.2c-5.2,5.9-10.2,11-15,15.4c-4.8,4.4-10.7,7.8-17.7,10.2 c-3.9,1.9-8.1,2.6-12.5,2.3c-4.4-0.4-8.5-1.8-12.3-4.2c-3.8-2.5-7-6.1-9.8-10.9c-2.7-4.8-4.4-10.9-4.9-18.4l-0.4,0.7 c-7.8,13.8-16.8,23-26.9,27.6c-10.1,4.6-19.8,5.6-28.9,3c-9.1-2.6-16.7-8.3-22.8-17c-6.1-8.8-9-19.6-8.8-32.5 c0.8-13.6,3-26.9,6.6-40c3.1-11.2,8-23.2,14.6-35.8c6.6-12.6,16.1-23.9,28.3-33.7c3.1-3,8-6.1,14.6-9.1c6.6-3,13.7-4.7,21.1-4.9 c7.4-0.2,14.6,1.6,21.5,5.4c6.9,3.9,12.2,11.1,15.8,21.6c2.9-4.7,5.5-8.4,7.8-11.1c2.3-2.7,4-4.3,5.1-4.7 c7.3-2.1,14.8-2.3,22.6-0.7c7.8,1.6,14.4,4.8,19.9,9.5c1.3,1.2,1.4,2.3,0.4,3.5c-2.6,2.8-5.9,7.5-9.8,14 c-3.9,6.6-7.9,14.3-12.1,23.2c-4.2,8.9-8.3,18.7-12.3,29.5c-4,10.8-7.4,21.9-9.9,33.4c-1.8,7.5-2.7,13-2.5,16.5 c0.1,3.5,0.8,5.7,1.9,6.7c1.2,0.9,2.7,0.9,4.7-0.2c2-1.1,4-2.3,6-3.7c2.9-3,5.6-6.2,8.2-9.5c2.6-3.3,5.1-6.5,7.4-9.8 c3.9-5.4,7.4-10.8,10.5-16.2C1606.8,1631.1,1610.2,1625.5,1613.8,1619.6z M1503.4,1663.5c2.3-3.7,5-8.7,8-14.7 c3-6.1,6-12.5,9.2-19.1c3.1-6.7,6.1-13.2,9-19.7c2.9-6.4,5.3-11.9,7.4-16.3c1-3.3,2.5-6.8,4.3-10.5c-0.8-8.4-2.1-14.7-3.9-18.8 c-1.8-4.1-3.8-6.7-6-7.7c-2.2-1.1-4.7-0.9-7.4,0.5s-5.4,3.5-8,6.3c-6.8,7.3-12.6,15.4-17.6,24.4c-4.9,9-9,18-12.3,27 c-3.3,9-5.7,17.4-7.2,25.3c-1.6,7.8-2.5,14.1-2.7,18.8c-0.3,7,0.5,12.1,2.3,15.3c1.8,3.2,4.1,4.7,6.8,4.7c2.7,0,5.7-1.3,9-4 C1497.5,1672.2,1500.5,1668.4,1503.4,1663.5z"></path> <path d="M1802.6,1571.9c0.3-1.2,1.4-1.8,3.3-1.9c2-0.1,4,0.1,6.2,0.5c2.2,0.5,4.1,1.2,5.7,2.3c1.6,1.1,1.9,2.2,1.2,3.3 c-4.4,8.2-9.1,16.3-14,24.2c-4.9,8-11.7,14.6-20.3,20c-7,4.2-14.7,6.5-23,6.8c-8.3,0.4-15.9-1.1-22.6-4.4 c-6,9.6-12,18.8-18.1,27.7c-6.1,8.9-11.9,16.6-17.4,23.2c-4.2,5.2-8.8,10.5-14,16.2c-5.2,5.6-10.4,10.5-15.6,14.7 c-2.3,1.6-4.7,3.2-7.2,4.7c-2.5,1.5-5,2.9-7.6,4c-5.7,3-12.1,4.6-19.1,4.6c-7,0-13.4-1.9-19.1-5.8c-5.7-3.9-10.2-9.9-13.5-18.1 c-3.2-8.2-4.1-19-2.5-32.3c1.8-16.4,5-31.9,9.6-46.7c4.5-14.7,9.3-27.8,14.2-39.1c4.9-11.4,9.6-20.5,14-27.4 c4.4-6.9,7.5-10.8,9.4-11.8c7.8-2.3,15.9-2.6,24.2-0.9c8.3,1.8,15.5,5.2,21.5,10.4c1.3,1.2,1.4,2.5,0.4,3.9c-2.6,3-6,8-10.1,14.9 c-4.2,6.9-8.5,15.2-13.1,24.8c-4.6,9.6-9,20.2-13.3,31.8s-7.9,23.6-10.7,36c-1.6,7.3-2.1,13.3-1.8,18.3c0.4,4.9,1.5,8.9,3.3,11.9 c2.3,2.8,5.5,3.6,9.4,2.5c3.9-1.2,8.6-5.8,14-14c7.8-11.7,15.3-23.6,22.6-35.8c7.3-12.2,14.3-24.6,21.1-37.2 c-3.1-6.3-4.5-12.9-4.1-19.7c0.4-6.8,2.1-13.3,5.1-19.7c3-6.3,7.1-12.1,12.3-17.4c5.2-5.3,11.1-9.5,17.6-12.8 c1.6-1.4,3.6-1.9,6-1.6c2.5,0.4,5,1.1,7.6,2.3c2.6,1.2,4.9,2.5,7,4c2.1,1.5,3.4,2.6,3.9,3.3c1,1.4,1,4.3,0,8.6 c-1,4.3-2.9,9.5-5.5,15.6c-2.6,6.1-5.9,12.8-9.8,20.2c-3.9,7.4-8.2,15-12.9,23c4.4,2.6,9.5,3.6,15.2,3.2 c5.7-0.5,11.4-2.9,17.2-7.4c5.5-4.4,10.4-9.4,14.8-14.9C1798.4,1584.5,1801.3,1578.4,1802.6,1571.9z"></path> <path d="M1923.9,1618.2c0.8-0.9,2.2-1.6,4.3-1.9c2.1-0.4,4.2-0.5,6.4-0.5c2.2,0,4,0.2,5.5,0.7c1.4,0.5,1.9,1.1,1.4,1.8 c-3.6,8.4-8.1,16.9-13.5,25.3c-5.3,8.4-10.9,16.3-16.6,23.5c-5.7,7.3-11.3,13.6-16.8,19.1c-5.5,5.5-10,9.4-13.7,11.8 c-7,6.1-15.2,10-24.6,11.8c-9.4,1.8-18.6,1.8-27.7,0c-9.1-1.8-17.6-5.2-25.4-10.4c-7.8-5.1-13.4-11.7-16.8-19.7 c-3.9-8.4-6.1-17.8-6.6-28.3c-0.5-10.4,0.2-20.9,2.1-31.6c1.9-10.6,5.2-21.2,9.8-31.8c4.5-10.5,10-20.2,16.4-29 c6.4-8.8,13.5-16.3,21.5-22.6c7.9-6.3,16.4-10.9,25.6-13.7c9.9-2.8,18.7-3.6,26.5-2.5c7.8,1.2,14.4,3.7,19.9,7.5 c5.5,3.9,9.6,8.6,12.3,14.2c2.7,5.6,4,11.4,3.7,17.2c1.3,14-1.6,26.8-8.6,38.3c-7,11.5-16.5,20.2-28.5,26.3 c-7.5,4-15.6,6.7-24.2,8.3c-8.6,1.5-17.2,1.7-25.7,0.5c-1.8,9.4-2.1,17.6-1,24.6c1.2,7,3.3,13.1,6.4,18.3 c3.9,5.4,8.7,8.5,14.4,9.5c5.7,0.9,11.5,0.2,17.4-2.1c5.9-2.3,11.6-5.8,17.4-10.5c5.7-4.7,10.5-9.8,14.4-15.4 c4.4-6.3,8.6-12.6,12.5-19C1916.1,1631.6,1920,1625,1923.9,1618.2z M1893.9,1548.7c-5.5,0.5-11,2.7-16.6,6.7 c-5.6,4-11,9-16.2,15.1c-5.2,6.1-10,12.9-14.4,20.4c-4.4,7.5-8.1,15.1-10.9,22.8c9.9,0.7,18.5-0.2,25.7-2.6 c7.3-2.5,13.5-6,18.7-10.7c5.5-4.7,9.6-10.2,12.3-16.5c2.7-6.3,4.1-12.9,4.1-19.7c0-5.1-0.4-8.6-1.2-10.4 C1894.7,1552.1,1894.1,1550.4,1893.9,1548.7z"></path> <path d="M2038.2,1620c0.8-1.4,2.3-2.3,4.5-2.6c2.2-0.4,4.4-0.4,6.4-0.2c2.1,0.2,3.9,0.7,5.5,1.4c1.6,0.7,2.1,1.5,1.6,2.5 c-6,11.9-12,22.4-17.9,31.2c-6,8.9-12.7,17.7-20.3,26.3l-2.3,2.8c-1.3,4-3.1,7.7-5.3,11.1c-2.2,3.4-4.7,6.5-7.6,9.3 c-6.8,6.8-14.6,11.3-23.6,13.7c-9,2.3-18,3-27.1,1.9c-9.1-1.1-17.7-3.6-25.7-7.5c-8.1-4-14.3-8.9-18.7-14.7 c-5.2-7-7.4-14.6-6.6-22.8c-0.3-3.7,1.6-10.2,5.7-19.5c4-9.2,10.9-22.9,20.5-40.9c8.3-15.4,15.3-27.7,20.9-36.9 c5.6-9.1,10.5-16,14.6-20.7c2.1-3,4.5-6.3,7.4-9.7c2.9-3.4,5.7-5.7,8.6-6.8c3.4-1.6,7.3-2.3,11.7-1.9c4.4,0.4,8.6,1.1,12.7,2.3 c4,1.2,7.7,2.6,10.9,4.4c3.2,1.8,5.4,3.3,6.4,4.7c1,1.6,0.6,4.1-1.2,7.4c-1.8,3.3-3.5,5.4-5.1,6.3c-1.6,0.7-3.1,1.2-4.7,1.6 c-1.6,0.4-3.1,0.8-4.7,1.4c-1.6,0.6-3.2,1.6-4.9,3.2c-1.7,1.5-3.3,3.8-4.9,6.8c-1.8,3.7-2.7,7.7-2.7,11.8c0,4.1,0.6,8.1,1.8,11.9 c1.2,3.9,2.7,7.5,4.5,11.1c1.8,3.5,3.5,6.6,5.1,9.1c3.9,6.8,7,13.1,9.2,18.8c2.2,5.7,3.8,11.3,4.9,16.7v-0.4 c3.9-5.4,7.4-10.8,10.5-16.2C2031.2,1631.5,2034.6,1625.8,2038.2,1620z M1943.8,1618.2c-3.4,6.1-6.6,12-9.6,17.7 c-3,5.7-5.7,11.1-8,16c3.4,0,6.8,0.4,10.1,1.2c3.4,0.8,6.8,1.9,10.3,3.2c3.5,1.3,7.3,2.8,11.3,4.6c4,1.8,8.5,3.5,13.5,5.1 c-0.5-5.1-1.6-10.1-3.1-14.9c-1.6-4.8-3-9.2-4.3-13.2c-2.3-6.1-4.4-12.2-6.2-18.4c-1.8-6.2-3.4-12.3-4.7-18.4 c-1.3,2.6-2.8,5.3-4.5,8.1C1947,1611.9,1945.4,1615,1943.8,1618.2z M1929.8,1689.2c2.1,3.3,4.7,5.6,7.8,6.8 c3.1,1.3,6.4,1.8,9.8,1.4c3.4-0.4,6.7-1.3,9.9-3c3.2-1.6,5.9-3.9,8-6.7c1.6-1.9,2.7-3.7,3.5-5.6c-7.8-2.1-15.7-4.9-23.8-8.4 c-4.9-2.3-8.7-3.2-11.3-2.5c-2.6,0.7-4.4,2.1-5.5,4c-1,2-1.4,4.3-1,7C1927.6,1685,1928.5,1687.3,1929.8,1689.2z"></path> </g> </g> <g> <path class="st1" d="M888.4,1805.8c0.1,0.6,0.1,1.3,0.2,1.9C888.6,1807.1,888.5,1806.4,888.4,1805.8z"></path> <path class="st1" d="M887.8,1799.8c0.1,0.8,0.2,1.5,0.3,2.2C888,1801.3,887.9,1800.6,887.8,1799.8z"></path> <path class="st1" d="M766.3,1773.7c0-0.2,0-0.4,0-0.6C766.3,1773.3,766.3,1773.5,766.3,1773.7z"></path> <path class="st1" d="M886.8,1794c0.1,0.7,0.2,1.3,0.3,2C887,1795.3,886.9,1794.6,886.8,1794z"></path> <path class="st1" d="M766.2,1770.3c0-0.3,0-0.7,0-1C766.2,1769.7,766.2,1770,766.2,1770.3z"></path> <path class="st1" d="M743.2,1770.9c-0.1-0.6-0.1-1.1-0.2-1.7C743,1769.8,743.1,1770.3,743.2,1770.9z"></path> <path class="st1" d="M770.5,1786.8C770.5,1786.8,770.5,1786.8,770.5,1786.8L770.5,1786.8C770.5,1786.8,770.5,1786.8,770.5,1786.8z "></path> <path class="st1" d="M914.4,1799.9c-0.1-1.7-0.2-3.3-0.3-5C914.2,1796.5,914.3,1798.2,914.4,1799.9z"></path> <path class="st1" d="M743.7,1775c-0.1-0.6-0.2-1.1-0.3-1.7C743.5,1773.9,743.6,1774.5,743.7,1775z"></path> <path class="st1" d="M914.9,1808.4c-0.1-1.6-0.2-3.2-0.3-4.8C914.7,1805.3,914.8,1806.9,914.9,1808.4z"></path> <path class="st1" d="M744.6,1779.2c-0.1-0.6-0.3-1.2-0.4-1.7C744.3,1778,744.4,1778.6,744.6,1779.2z"></path> <path class="st1" d="M772.8,1775.2c0.3,2.8,3.1,8.2,5.6,13.1c0,0,0,0,0,0c31.1,6,66,12.1,103.8,18.3c-0.3-4.1-1-8.4-1.8-12.9 c2.2,0,4.3,0,6.5-0.1c-4-21.5-13-45.1-18.5-64.1c-5.4-18.6-12.4-50.8-17-73.2c0.1,1.3,0.3,2.5,0.5,3.7l-6.3,1.1 c-1.1-6.5-1.5-16.1-1.4-27.3c-9.9,9.8-50.8,50.1-62.1,64.1c-11,13.6-15.5,52.2-15.8,70.5c2.1,0.3,4.2,0.7,6.3,1 C772.5,1771.8,772.6,1773.8,772.8,1775.2z"></path> <path class="st1" d="M745.1,1781.6c0,0,0,0.1,0,0.1c0,0,0,0,0,0C745.2,1781.7,745.1,1781.6,745.1,1781.6z"></path> <path class="st1" d="M768.3,1782.1c-0.2-0.4-0.4-0.8-0.5-1.2C768,1781.3,768.2,1781.7,768.3,1782.1z"></path> <path class="st1" d="M767.3,1779.3c-0.1-0.3-0.3-0.7-0.4-1C767,1778.6,767.2,1779,767.3,1779.3z"></path> <path class="st1" d="M769.6,1785c-0.2-0.4-0.4-0.9-0.6-1.3C769.2,1784.2,769.4,1784.6,769.6,1785z"></path> <path class="st2" d="M915.7,1820.4c0.1,1.4,0.2,2.8,0.3,4.1C915.9,1823.1,915.8,1821.7,915.7,1820.4z"></path> <path class="st2" d="M779.2,1808.3c0,0.3,0,0.7,0,1C779.3,1809,779.3,1808.6,779.2,1808.3z"></path> <path class="st2" d="M752.4,1798.8c-0.3-0.6-0.7-1.1-1-1.7C751.7,1797.7,752,1798.2,752.4,1798.8z"></path> <path class="st2" d="M875.9,1857.1c0.7-1.9,1.5-3.8,2.2-5.7C877.4,1853.2,876.6,1855.2,875.9,1857.1z"></path> <path class="st2" d="M750.3,1795.2c-0.3-0.6-0.6-1.1-0.9-1.7C749.7,1794.1,750,1794.6,750.3,1795.2z"></path> <path class="st2" d="M748.5,1791.4c-0.3-0.6-0.5-1.2-0.7-1.7C748,1790.2,748.3,1790.8,748.5,1791.4z"></path> <path class="st2" d="M915.1,1812.2c0.1,1.5,0.2,3,0.3,4.5C915.3,1815.2,915.2,1813.7,915.1,1812.2z"></path> <path class="st2" d="M869.2,1883.6c0-1.5,0.1-3.1,0.4-4.8C869.4,1880.4,869.3,1882,869.2,1883.6z"></path> <path class="st2" d="M757,1805.1c-0.4-0.5-0.9-0.9-1.3-1.5C756.1,1804.1,756.5,1804.6,757,1805.1z"></path> <path class="st2" d="M870.6,1873.7c0.4-1.8,0.9-3.6,1.4-5.4C871.5,1870.1,871,1871.9,870.6,1873.7z"></path> <path class="st2" d="M869.6,1878.8c0.2-1.7,0.6-3.4,1-5.1C870.2,1875.4,869.8,1877.1,869.6,1878.8z"></path> <path class="st2" d="M872,1868.3c0.5-1.8,1.2-3.7,1.8-5.6C873.2,1864.6,872.6,1866.5,872,1868.3z"></path> <path class="st2" d="M754.6,1802.1c-0.4-0.5-0.8-1-1.1-1.6C753.8,1801,754.2,1801.6,754.6,1802.1z"></path> <path class="st2" d="M759.5,1807.7c-0.5-0.4-1-0.8-1.4-1.3C758.6,1806.8,759.1,1807.2,759.5,1807.7z"></path> <path class="st2" d="M918.7,1854.7c0-0.4-0.1-0.7-0.1-1.1c0,0,0,0,0,0C918.6,1853.9,918.6,1854.3,918.7,1854.7z"></path> <path class="st2" d="M914.6,1888c-0.3,0.7-0.7,1.3-1,1.9C913.9,1889.3,914.2,1888.7,914.6,1888z"></path> <path class="st2" d="M775.1,1796c-0.1-0.1-0.1-0.3-0.2-0.4C775,1795.7,775.1,1795.9,775.1,1796z"></path> <path class="st2" d="M779.2,1807.2c0-0.4-0.2-0.8-0.2-1.1C779.1,1806.4,779.2,1806.8,779.2,1807.2z"></path> <path class="st2" d="M776.6,1799.1c-0.1-0.3-0.3-0.6-0.4-0.9C776.3,1798.5,776.4,1798.8,776.6,1799.1z"></path> <path class="st2" d="M777.8,1802c-0.1-0.4-0.3-0.8-0.5-1.2C777.5,1801.2,777.6,1801.6,777.8,1802z"></path> <path class="st2" d="M778.7,1804.7c-0.1-0.4-0.3-0.8-0.4-1.2C778.4,1803.9,778.6,1804.3,778.7,1804.7z"></path> <path class="st2" d="M778.2,1811.7c-0.2,0.2-0.4,0.5-0.6,0.7C777.8,1812.2,778,1812,778.2,1811.7z"></path> <path class="st2" d="M888,1823.5c-0.1,0.5-0.2,1-0.3,1.5C887.8,1824.5,887.9,1824,888,1823.5z"></path> <path class="st2" d="M888.6,1818.3c0,0.6-0.1,1.1-0.2,1.7C888.5,1819.4,888.6,1818.8,888.6,1818.3z"></path> <path class="st2" d="M745.2,1781.7c0.1,0.6,0.3,1.1,0.5,1.6C745.5,1782.8,745.3,1782.2,745.2,1781.7 C745.2,1781.7,745.2,1781.7,745.2,1781.7z"></path> <path class="st2" d="M747,1787.4c-0.2-0.6-0.4-1.2-0.6-1.8C746.5,1786.3,746.8,1786.8,747,1787.4z"></path> <path class="st2" d="M775.6,1813.2c0.4-0.1,0.7-0.3,1-0.4C776.3,1813,776,1813.1,775.6,1813.2z"></path> <path class="st2" d="M888.8,1813c0,0.3,0,0.7,0,1C888.8,1813.7,888.8,1813.4,888.8,1813z"></path> <path class="st2" d="M778.7,1811.1c0.1-0.3,0.2-0.6,0.3-0.9C778.9,1810.5,778.9,1810.8,778.7,1811.1z"></path> <path class="st3" d="M882.1,1806.7c-37.7-6.2-72.7-12.4-103.8-18.3c5.1,10,9.9,19.4,5.7,26.3c-0.2,0.3-0.4,0.5-0.6,0.8 c30.6,7.4,61.7,14.8,93.3,22.1c1.4-3.5,2.6-6.8,3.7-9.9C882.4,1821.6,882.8,1814.5,882.1,1806.7z"></path> <path class="st2" d="M904.2,1899.1c-1.1,0.6-2.3,1.1-3.6,1.5C901.9,1900.1,903.1,1899.6,904.2,1899.1z"></path> <path class="st2" d="M918.7,1871.2c-0.1,0.9-0.2,1.7-0.3,2.6C918.5,1872.9,918.6,1872.1,918.7,1871.2z"></path> <path class="st2" d="M907.5,1897c-0.7,0.5-1.4,0.9-2.1,1.4C906.1,1897.9,906.8,1897.5,907.5,1897z"></path> <path class="st2" d="M900.5,1900.6c-1.3,0.4-2.8,0.7-4.3,0.9C897.7,1901.3,899.1,1901,900.5,1900.6z"></path> <path class="st2" d="M919,1861.5c0,1,0,2,0,2.9C919,1863.4,919,1862.5,919,1861.5z"></path> <path class="st2" d="M918.9,1866.4c0,0.9-0.1,1.8-0.1,2.7C918.9,1868.3,918.9,1867.3,918.9,1866.4z"></path> <path class="st3" d="M1750.5,1937.1c-0.6-13.5-15-25.5-49.3-26.5c-51.7-1.5-482.1-50.4-779.6-97.6c0.9,14.4,2,26.9,2.9,35.3 C1182.8,1905.9,1468,1952.3,1750.5,1937.1z"></path> <path class="st2" d="M918.1,1875.8c-0.1,0.8-0.3,1.6-0.4,2.4C917.9,1877.4,918,1876.6,918.1,1875.8z"></path> <path class="st3" d="M750.5,1807.3c-5.9-7.4-10-17.3-12.2-27.1c-14.3-3-27.4-6-39-8.9c-210.8-54.2-224.9-37.2-209.4-31.4 c0,0,26.5,6,67.8,19.1c19,4.8,38.3,9.6,58.4,14.7C659.6,1784.7,704.5,1796,750.5,1807.3z"></path> <path class="st3" d="M1640,1946.5c-245.8,0-490.5-41.5-715-91.5c1.4,20-1.9,34.7-9.8,43.5c-5.8,6.4-13.7,9.7-23.5,9.7 c-2.3,0-4.8-0.2-7.3-0.6c-8.8-1.3-15-5-18.4-11c-7.6-13.3,0.5-33.3,8.3-52.6c0.1-0.2,0.1-0.3,0.2-0.4 c-33.8-7.8-67.1-15.8-99.8-23.7c-0.5,0-1,0.1-1.6,0.1c-0.1,0-0.3,0-0.4,0c-4.4-0.1-8.4-1.4-12-3.5c-46.6-11.4-92-22.8-136-33.9 c74.8,28.6,168.3,72.9,246.4,136.1c14.3,11.5,23.6,22.8,39.8,31.4c10.5,5.6,29.8,10.7,50.7,14.2c162.1,27.1,570.4,76.9,757.2,8.4 c16.8-6.4,28.3-17.7,31.2-29C1713.2,1945.5,1676.6,1946.5,1640,1946.5z"></path> <path class="st2" d="M916.1,1884.2c-0.2,0.7-0.5,1.4-0.8,2.1C915.6,1885.6,915.8,1884.9,916.1,1884.2z"></path> <path class="st2" d="M912.6,1891.4c-0.4,0.6-0.9,1.2-1.3,1.7C911.8,1892.6,912.2,1892,912.6,1891.4z"></path> <path class="st2" d="M910.3,1894.4c-0.5,0.6-1.1,1-1.6,1.5C909.2,1895.5,909.8,1895,910.3,1894.4z"></path> <path class="st2" d="M891.7,1901.8c1,0,2-0.1,2.9-0.2c-1.1,0.1-2.1,0.2-3.3,0.2C891.5,1901.8,891.6,1901.8,891.7,1901.8z"></path> <path class="st2" d="M917.3,1880.1c-0.2,0.8-0.4,1.5-0.6,2.3C916.9,1881.7,917.1,1880.9,917.3,1880.1z"></path> <path class="st2" d="M917.5,1842.4c0.1,0.7,0.1,1.4,0.2,2.1C917.6,1843.8,917.5,1843.1,917.5,1842.4z"></path> <path class="st2" d="M918.8,1856.3c0.1,1.1,0.1,2.2,0.2,3.3C918.9,1858.5,918.8,1857.4,918.8,1856.3z"></path> <path class="st2" d="M770.5,1786.8L770.5,1786.8c0.1,0.2,0.2,0.5,0.4,0.7C770.7,1787.3,770.6,1787,770.5,1786.8z"></path> <path class="st2" d="M762.3,1809.9c-0.5-0.4-1.1-0.7-1.6-1.1C761.3,1809.2,761.8,1809.5,762.3,1809.9z"></path> <path class="st2" d="M916.9,1835.5c0.1,1,0.2,2,0.2,2.9C917,1837.5,916.9,1836.5,916.9,1835.5z"></path> <path class="st2" d="M916.3,1828.2c0.1,1.2,0.2,2.4,0.3,3.5C916.5,1830.6,916.4,1829.4,916.3,1828.2z"></path> <path d="M1170.7,551c2.1-3,3.5-5,4.1-6C1174.2,546,1172.9,548.1,1170.7,551z"></path> <path d="M974.7,1131.9c0.6,1.6,1.1,3.3,1.7,5.1C975.8,1135.3,975.2,1133.6,974.7,1131.9z"></path> <path d="M964.6,817.1c-5.6,3.3-10.9,6.4-15.9,9.2C953.7,823.5,959,820.4,964.6,817.1z"></path> <path d="M1191.9,563.7c-0.2,0.3-0.4,0.6-0.6,0.9C1191.5,564.3,1191.7,564,1191.9,563.7z"></path> <path d="M1153,574.5c2.3-2.9,4.5-5.7,6.4-8.2C1157.5,568.8,1155.3,571.6,1153,574.5z"></path> <path d="M1145.6,583.8c2.7-3.3,5.2-6.4,7.5-9.3C1150.7,577.4,1148.2,580.5,1145.6,583.8z"></path> <path d="M1035,770.1c-2.4,1.8-4.8,3.6-7.3,5.3C1030.2,773.6,1032.7,771.9,1035,770.1z"></path> <path d="M1072.9,738c-9.6,9.8-23,20.9-37.9,32.1C1050,758.9,1063.3,747.8,1072.9,738z"></path> <path d="M1187.6,569.8c-0.3,0.4-0.5,0.8-0.8,1.2C1187.1,570.6,1187.3,570.2,1187.6,569.8z"></path> <path d="M1088.4,719.9c-1.4,1.8-2.8,3.5-4,5C1085.6,723.3,1086.9,721.7,1088.4,719.9z"></path> <path d="M969.3,1117.7c0.5,1.3,1.1,2.6,1.6,4C970.4,1120.3,969.8,1119,969.3,1117.7z"></path> <path d="M983.7,1166.2c0.5,2.7,1.1,5.4,1.6,8.4C984.8,1171.7,984.3,1168.9,983.7,1166.2z"></path> <path d="M980.1,1150.4c0.5,2.2,1.1,4.4,1.6,6.8C981.2,1154.8,980.7,1152.6,980.1,1150.4z"></path> <path d="M982,1158.1c0.5,2.4,1.1,4.8,1.6,7.4C983,1162.9,982.5,1160.5,982,1158.1z"></path> <path d="M1007.8,724.9c1.8-1.4,3.7-2.9,5.5-4.4C1011.5,721.9,1009.7,723.4,1007.8,724.9z"></path> <path d="M1024.5,711.1c2.8-2.4,5.6-5,8.4-7.6C1030.1,706.2,1027.3,708.7,1024.5,711.1z"></path> <path d="M999.5,731.1c1.8-1.3,3.6-2.7,5.4-4.1C1003.2,728.4,1001.3,729.8,999.5,731.1z"></path> <path d="M1005.8,790.8c-4,2.7-8,5.4-12,8C997.7,796.2,1001.8,793.6,1005.8,790.8z"></path> <path d="M1017.7,782.6c-3.9,2.8-7.9,5.5-12,8.2C1009.8,788.1,1013.8,785.4,1017.7,782.6z"></path> <path d="M978.3,1143.6c0.6,2,1.1,4.2,1.7,6.4C979.4,1147.7,978.9,1145.6,978.3,1143.6z"></path> <path d="M976.6,1137.7c0.6,1.8,1.1,3.8,1.7,5.8C977.7,1141.5,977.1,1139.6,976.6,1137.7z"></path> <path d="M844.5,785.1c-13.6-5.7-27.8-16.7-37.4-25.9c-0.9,8.5-3.6,23-11.6,35.7C813.2,801.4,834.2,791.3,844.5,785.1z"></path> <path d="M734.4,751.8c-1.3,1.5-2.7,3-4.1,4.5l0,0.1c-0.1,0.1-0.2,0.1-0.2,0.1C681.8,809,608.3,827.4,577.7,835 c-38.4,9.6-48.1,23.9-55.7,56.4c8.2-12.1,21.1-25.6,39.4-29.2c33.2-6.5,71.3-20.4,74.3-22.6l0,0c14-10.3,29.5-19.4,45-26.6l0-0.1 C695.8,805.8,712.7,786.6,734.4,751.8z"></path> <path d="M1016.2,718.2c2-1.6,3.9-3.3,5.9-5C1020.1,714.9,1018.1,716.6,1016.2,718.2z"></path> <path d="M960,1095.8c0.1,0.3,0.2,0.5,0.3,0.8C960.2,1096.3,960.1,1096.1,960,1095.8z"></path> <path d="M967.4,1113.2c-0.5-1.2-1.1-2.4-1.6-3.6c0.3,0.8,0.7,1.5,1,2.3C967,1112.4,967.2,1112.8,967.4,1113.2z"></path> <path d="M956.8,1085.4c0,0.1,0,0.2,0.1,0.3C956.9,1085.6,956.8,1085.5,956.8,1085.4z"></path> <path d="M1146,634.1c-0.2,0.4-0.5,0.8-0.7,1.2C1145.5,635,1145.8,634.5,1146,634.1z"></path> <path d="M1149.1,628.9c-0.3,0.5-0.6,0.9-0.8,1.4C1148.5,629.9,1148.8,629.4,1149.1,628.9z"></path> <path d="M959,1092.8c0.1,0.3,0.2,0.5,0.3,0.8C959.2,1093.3,959.1,1093,959,1092.8z"></path> <path d="M1156.6,616.8c-0.2,0.3-0.4,0.7-0.6,1C1156.1,617.5,1156.3,617.1,1156.6,616.8z"></path> <path d="M1152.3,623.6c-0.1,0.2-0.2,0.4-0.4,0.6C1152.1,624,1152.2,623.8,1152.3,623.6z"></path> <path d="M987.7,1189.5c-0.2-1.6-0.5-3.2-0.7-4.7C987.2,1186.3,987.5,1187.9,987.7,1189.5C987.7,1189.5,987.7,1189.5,987.7,1189.5z "></path> <path d="M955.7,1081.1c0,0.1,0.1,0.2,0.1,0.3C955.8,1081.3,955.7,1081.2,955.7,1081.1z"></path> <path d="M967.5,1113.4c0.5,1.2,1,2.4,1.6,3.7C968.5,1115.9,968,1114.6,967.5,1113.4z"></path> <path d="M1160.6,610.4c-0.3,0.5-0.6,1-0.9,1.5C1160,611.4,1160.3,610.9,1160.6,610.4z"></path> <path d="M986.8,1183.5c-0.5-3.1-1-6.1-1.5-9c0.5,2.7,0.9,5.5,1.4,8.4C986.8,1183.2,986.8,1183.3,986.8,1183.5z"></path> <path d="M974.5,1131.4c-1.1-3.3-2.3-6.4-3.4-9.3c0.2,0.6,0.4,1.2,0.7,1.8C972.7,1126.2,973.6,1128.7,974.5,1131.4z"></path> <path d="M1142.6,639.9c-0.1,0.1-0.1,0.2-0.2,0.3C1142.5,640.1,1142.6,640,1142.6,639.9z"></path> <path d="M1138.4,647.6c-0.2,0.3-0.3,0.6-0.5,0.9C1138.1,648.2,1138.2,647.9,1138.4,647.6z"></path> <path d="M1140.4,643.9c-0.2,0.4-0.4,0.7-0.6,1.1C1140,644.6,1140.2,644.3,1140.4,643.9z"></path> <path d="M1176.1,542.5C1176.1,542.5,1176.1,542.5,1176.1,542.5c-0.4,0.8-0.7,1.5-0.9,1.9c-0.1,0.1-0.2,0.3-0.3,0.6 c0.2-0.3,0.3-0.4,0.3-0.6C1175.3,544,1175.6,543.4,1176.1,542.5z"></path> <path d="M962.6,1102.3c0.1,0.2,0.1,0.3,0.2,0.5C962.7,1102.6,962.7,1102.4,962.6,1102.3z"></path> <path d="M964.1,1105.8c0.2,0.4,0.3,0.7,0.5,1.1C964.5,1106.5,964.3,1106.1,964.1,1105.8z"></path> <path d="M965.2,1108.1c0.2,0.5,0.4,0.9,0.6,1.4C965.6,1109.1,965.4,1108.6,965.2,1108.1z"></path> <path d="M1182.7,576.9c-0.1,0.1-0.1,0.2-0.2,0.2C1182.6,577.1,1182.6,577,1182.7,576.9z"></path> <path d="M872.2,785.7c-0.3,0-0.5,0.1-0.8,0.1c0,0,0,0,0,0C871.7,785.8,871.9,785.7,872.2,785.7z"></path> <path d="M981.8,806.5c-5.9,3.7-11.7,7.3-17.2,10.6C970.1,813.7,975.9,810.2,981.8,806.5z"></path> <path d="M948.8,977.5c0,0.2-0.1,0.4-0.1,0.6C948.8,977.9,948.8,977.7,948.8,977.5z"></path> <path d="M1197.8,555.7c11.6-15.7,21.7-27.7,27-30.4c16.1-8.3,16.6-21.9,24.9-32.9c8.3-11,38.6-30.4,29.8-32.1 c-8.8-1.6-24.7,11.6-58.7,36c-23.7,17.1-35.7,31.9-41.4,40.6C1186.4,541.7,1193.3,547.8,1197.8,555.7z"></path> <path d="M703.1,804c5.9-2,11.6-3.7,17.2-5c47.3-10.8,69.1-56.9,72.5-64.5c-0.1-0.6-0.2-1.1-0.2-1.7c-9.3,8.2-29.9,24.3-63.2,38.5 C719.8,785.2,711.2,796,703.1,804z"></path> <path d="M1164.5,604.3c-0.1,0.2-0.2,0.3-0.3,0.5C1164.3,604.6,1164.4,604.5,1164.5,604.3z"></path> <path d="M1169.2,597.1c-0.2,0.2-0.3,0.5-0.5,0.7C1168.9,597.6,1169,597.3,1169.2,597.1z"></path> <path d="M1173.8,590.1c-0.3,0.4-0.6,0.9-0.9,1.3C1173.2,591,1173.5,590.6,1173.8,590.1z"></path> <path d="M1178,583.7c-0.1,0.2-0.3,0.4-0.4,0.6C1177.8,584.2,1177.9,584,1178,583.7z"></path> <path d="M901.1,1247.5c5.5,23.5,9.1,80.9,11.5,120.3c0.6,10.3,1.2,19.1,1.7,25.9c2.8,37.6,7.2,108.3,6.2,134.3 c-0.4,11.2,0.4,26.4,1.4,40c7.1-5.1,18.2-17.4,28-30.7c-0.2,0-0.4,0-0.6,0c-12.3,0-16.4-9.6-16.5-9.7c-0.7-1.6,0.1-3.5,1.7-4.2 c1.6-0.7,3.5,0.1,4.2,1.7c0.4,0.9,4.1,8.1,16.3,5c8-11.8,14.2-23.4,15.1-30.6c2.2-18.5,31.9-159.9,22-271.3 c-1.1-12-2.2-22.6-3.5-32.3C969,1198,918.9,1207.4,901.1,1247.5z"></path> <path d="M753.8,942.5c-0.2-0.3-0.5-0.5-0.7-0.8C753.3,942,753.6,942.3,753.8,942.5z"></path> <path d="M744.9,933c0.2,0.2,0.4,0.4,0.7,0.7C745.3,933.5,745.1,933.2,744.9,933z"></path> <path d="M416.4,1127.2c2.2-1.7,4.4-3.3,6.6-5C420.8,1123.9,418.6,1125.5,416.4,1127.2z"></path> <path d="M425.1,1120.6c2.7-2,5.4-4,8.2-6C430.5,1116.6,427.8,1118.6,425.1,1120.6z"></path> <path d="M681.4,948.8c22.6-20.7,42.3-32.9,52.8-25.2c0,0,0,0,0,0c0,0,0,0,0,0C723.7,915.9,704,928,681.4,948.8z"></path> <path d="M651.3,979.3c10.2-11.2,20.5-21.6,30.1-30.5C671.7,957.7,661.5,968.2,651.3,979.3z"></path> <path d="M991.3,736.9c1.8-1.2,3.6-2.5,5.5-3.8C994.9,734.3,993.1,735.6,991.3,736.9z"></path> <path d="M846.4,1074.4c24.3,3.3,82,1.3,105.7-9.5c-4.7-24.3-7.9-55.1-4.5-80c-22.9,2.2-56.4,14-80.3,25.2 c-24.7,11.6-55.6,14.7-66.7,15.5c4.3,15.6,5.9,31.6,3.2,47C812.4,1072.1,828.5,1071.9,846.4,1074.4z"></path> <path d="M802.3,1079c-0.2,0.6-0.3,1.2-0.4,1.8C802.1,1080.2,802.2,1079.6,802.3,1079C802.3,1079,802.3,1079,802.3,1079z"></path> <path d="M429.5,1153.5c2.6-1.1,5.3-2.2,8.1-3.2c3.2-1.2,7.3-2.7,12.1-4.4c-4.8,1.8-8.9,3.2-12.1,4.4 C434.8,1151.4,432.1,1152.4,429.5,1153.5z"></path> <path d="M485,1080.1c1.4-0.9,2.8-1.7,4.1-2.5C487.8,1078.4,486.4,1079.2,485,1080.1z"></path> <path d="M416.4,1159.6c0.9-0.5,1.8-0.9,2.7-1.4C418.2,1158.7,417.3,1159.1,416.4,1159.6C416.4,1159.6,416.4,1159.6,416.4,1159.6z"></path> <path d="M570.8,1002.9c-1.2,2.1-2.5,4.4-3.9,6.8C568.3,1007.3,569.6,1005.1,570.8,1002.9L570.8,1002.9z"></path> <path d="M470,1089.5c1.7-1.1,3.3-2.1,4.9-3.1C473.3,1087.4,471.7,1088.4,470,1089.5z"></path> <path d="M461.7,1141.3c-2.9,1.1-5.6,2.2-8.2,3.1C456.1,1143.5,458.8,1142.4,461.7,1141.3z"></path> <path d="M477.7,1084.6c1.5-1,3-1.9,4.5-2.8C480.8,1082.7,479.3,1083.6,477.7,1084.6z"></path> <path d="M404.7,1136.4c-1.4,1.1-2.8,2.2-4.2,3.4c0,0,0,0,0,0C401.9,1138.7,403.3,1137.5,404.7,1136.4z"></path> <path d="M461.8,1094.9c1.8-1.2,3.7-2.4,5.5-3.6C465.5,1092.4,463.6,1093.6,461.8,1094.9z"></path> <path d="M395.5,1143.9c-38.6,32.3-72.5,69-78.2,100.8c0.4,11.6,18.3-3.6,24.5-17.4c6.3-13.8,4.3-13.7,16.7-20 c12.4-6.3,16-13.2,27.1-25.2c6.5-7,14.4-13.3,24.8-19.3C404.3,1157.3,399.3,1150.4,395.5,1143.9z"></path> <path d="M433.7,1114.3c5.9-4.2,11.7-8.3,17.3-12.2C445.4,1106,439.6,1110,433.7,1114.3z"></path> <path d="M452.9,1100.9c2.2-1.5,4.3-2.9,6.4-4.4C457.2,1097.9,455,1099.4,452.9,1100.9z"></path> <path d="M407.7,1134c2-1.6,4-3.1,6-4.7C411.7,1130.9,409.7,1132.4,407.7,1134z"></path> <path d="M785.7,988.9c-0.3-0.6-0.7-1.2-1-1.8C785,987.6,785.4,988.3,785.7,988.9z"></path> <path d="M789.3,995.9c-0.2-0.4-0.4-0.8-0.6-1.1C788.9,995.2,789.1,995.6,789.3,995.9z"></path> <path d="M852.1,1587c-1.2,26.8-2.5,54.4-0.8,69.5c4.6,22.4,11.6,54.5,17,73.2c5.5,18.9,14.5,42.6,18.5,64.1c0,0,0,0,0,0 c0,0.1,0,0.1,0,0.2c0.1,0.7,0.2,1.3,0.3,2c0.2,1.3,0.4,2.6,0.6,3.8c0.1,0.8,0.2,1.5,0.3,2.2c0.2,1.3,0.3,2.5,0.4,3.7 c0.1,0.6,0.1,1.3,0.2,1.9c0,0,0,0,0,0c8.7,1.4,17.5,2.9,26.5,4.3c-0.1-1.2-0.2-2.4-0.2-3.6c-0.1-1.6-0.2-3.2-0.3-4.8 c-0.1-1.3-0.1-2.5-0.2-3.8c-0.1-1.7-0.2-3.3-0.3-5c0-0.3,0-0.7-0.1-1c0,0,0,0,0,0c-1.4-27.3-2.1-57.3-0.8-78.4 c1.7-27.6,3.8-86.8,4.7-120.6c-1.5-14.5-4.6-46.7-3.9-67.1c0.9-25.8-3.5-96.1-6.2-133.6c-0.5-6.8-1.1-15.6-1.7-25.9 c-2.5-40.4-6.8-107.9-12.9-124.5c-32.8-47.1-102.4-49-121.7-48.6c-3.6,29.2-2.5,61.1,8,97.5c25.5,88.1,61.4,171,63.7,178.6 c1.6,5.5,7,35,8.3,54.7c1.1,6.7,2,14.3,1.9,21.9C853.3,1559.5,852.7,1572.9,852.1,1587z M901.5,1549.4c1.1,1.4,0.9,3.4-0.5,4.5 c-5.6,4.5-11.1,6.1-15.9,6.1c-7.6,0-13.6-4-16.6-7.4c-1.2-1.3-1.1-3.3,0.3-4.5c1.3-1.2,3.3-1.1,4.5,0.2 c1.1,1.2,10.6,10.9,23.7,0.5C898.4,1547.8,900.4,1548.1,901.5,1549.4z"></path> <path d="M781.4,981.1c-0.2-0.3-0.3-0.6-0.5-0.9C781.1,980.5,781.2,980.8,781.4,981.1z"></path> <path d="M775.1,1174.4c0.8-3.9,1.6-7.9,2.5-11.7c-2,8.5-3.7,17.1-5.1,26c0,0,0,0,0.1,0C773.3,1183.8,774.1,1179.1,775.1,1174.4z"></path> <path d="M787.7,1126.4c0.6-1.9,1.2-3.8,1.8-5.7c1.5-4.6,2.9-9.2,4.4-13.8c-4.3,13.4-8.7,27-12.5,40.9c0.5-1.7,1-3.4,1.5-5.1 C784.4,1137.3,786,1131.8,787.7,1126.4z"></path> <path d="M796.4,1012.5c-0.2-0.7-0.5-1.3-0.7-1.9C795.9,1011.2,796.1,1011.9,796.4,1012.5z"></path> <path d="M797.6,1095c0.1-0.4,0.3-0.8,0.4-1.2C797.9,1094.2,797.7,1094.6,797.6,1095z"></path> <path d="M743.2,1770.9c0.1,0.8,0.2,1.6,0.3,2.4c0.1,0.6,0.2,1.1,0.3,1.7c0.1,0.8,0.3,1.6,0.4,2.4c0.1,0.6,0.3,1.2,0.4,1.7 c0.2,0.8,0.4,1.6,0.6,2.4c0,0,0,0.1,0,0.1c8.1,1.7,16.5,3.4,25.3,5.1c0,0,0,0,0,0c-0.3-0.6-0.6-1.2-0.8-1.7 c-0.2-0.4-0.4-0.9-0.6-1.3c-0.3-0.6-0.5-1.1-0.7-1.6c-0.2-0.4-0.4-0.8-0.5-1.2c-0.2-0.5-0.4-1.1-0.5-1.6c-0.1-0.3-0.3-0.7-0.4-1 c-0.2-0.8-0.4-1.6-0.5-2.3c-0.1-0.6-0.1-1.4-0.2-2.3c0-0.2,0-0.4,0-0.6c0-0.8-0.1-1.8-0.1-2.8c0-0.3,0-0.7,0-1c0-0.3,0-0.6,0-0.9 c0,0,0,0,0,0c0.2-18.3,4.7-56.9,15.8-70.5c11.4-14,52.2-54.3,62.1-64.1c0.1-14.1,0.8-30.8,1.6-47.2c0.6-14,1.2-27.2,1.4-38.8 c-10.1,13-36.7,40.9-55.5,71.4c-21.9,35.6-37.4,61.4-56.6,66c-19.2,4.6-18.5,22.9-8.4,35.1c10.1,12.2,16.3,22.6,16.1,43.9 c0,0.8,0,1.7,0.1,2.6c0,0.8,0.1,1.6,0.1,2.4C743,1769.8,743.1,1770.3,743.2,1770.9z"></path> <path d="M793.2,1004.7c-0.2-0.5-0.4-1-0.7-1.6C792.8,1003.7,793,1004.2,793.2,1004.7z"></path> <path d="M776.9,973.7c-0.3-0.5-0.6-1-0.9-1.5C776.3,972.7,776.6,973.2,776.9,973.7z"></path> <path d="M738,926.6c-0.3-0.3-0.6-0.5-0.9-0.8C737.4,926.1,737.7,926.4,738,926.6z"></path> <path d="M646.2,985c-5.1,5.7-10.2,11.5-15.2,17.4C636,996.5,641.1,990.7,646.2,985z"></path> <path d="M625.9,1008.2c-3.3,3.9-6.6,7.8-9.8,11.7C619.4,1016,622.6,1012.1,625.9,1008.2z"></path> <path d="M772.7,967.2c-0.4-0.5-0.7-1.1-1.1-1.6C772,966.2,772.3,966.7,772.7,967.2z"></path> <path d="M781.2,1148.7c-1.2,4.3-2.3,8.7-3.4,13.1c0.3-1.4,0.7-2.8,1.1-4.3C779.6,1154.5,780.4,1151.6,781.2,1148.7z"></path> <path d="M758.8,948.5c-0.3-0.4-0.6-0.8-1-1.2C758.2,947.7,758.5,948.1,758.8,948.5z"></path> <path d="M741.4,929.6c-0.3-0.3-0.6-0.5-0.9-0.8C740.8,929.1,741.1,929.4,741.4,929.6z"></path> <path d="M763.3,954.1c-0.4-0.5-0.7-1-1.1-1.4C762.5,953.1,762.9,953.6,763.3,954.1z"></path> <path d="M749.8,938.1c-0.4-0.4-0.7-0.8-1.1-1.2C749.1,937.3,749.4,937.7,749.8,938.1z"></path> <path d="M426.8,1154.7c-1.6,0.7-3.1,1.4-4.6,2.1C423.7,1156.1,425.2,1155.4,426.8,1154.7z"></path> <path d="M897.3,780.4c1.7-0.4,3.4-0.9,5.2-1.4C900.8,779.5,899,779.9,897.3,780.4z"></path> <path d="M903.3,778.8c1.8-0.5,3.5-1,5.4-1.6C906.8,777.7,905,778.2,903.3,778.8z"></path> <path d="M929.6,769.7c1.9-0.7,3.8-1.5,5.7-2.3C933.4,768.2,931.5,769,929.6,769.7z"></path> <path d="M922.6,772.4c1.9-0.7,3.7-1.4,5.7-2.2C926.4,771,924.5,771.7,922.6,772.4z"></path> <path d="M915.9,774.8c1.8-0.6,3.7-1.3,5.6-2C919.6,773.5,917.8,774.1,915.9,774.8z"></path> <path d="M909.5,776.9c1.8-0.6,3.6-1.2,5.5-1.8C913.1,775.7,911.3,776.3,909.5,776.9z"></path> <path d="M881.4,784.1c1.5-0.3,3-0.6,4.5-0.9C884.4,783.5,882.9,783.8,881.4,784.1z"></path> <path d="M876.8,784.9c1.4-0.2,2.8-0.5,4.2-0.8C879.5,784.4,878.1,784.7,876.8,784.9z"></path> <path d="M886.4,783c1.5-0.3,3.1-0.7,4.7-1.1C889.5,782.3,887.9,782.7,886.4,783z"></path> <path d="M872.5,785.6c1.3-0.2,2.6-0.4,3.9-0.6C875.1,785.2,873.8,785.4,872.5,785.6z"></path> <path d="M891.7,781.8c1.6-0.4,3.3-0.8,5-1.3C895,781,893.3,781.4,891.7,781.8z"></path> <path d="M975.1,747.2c1.8-1.1,3.7-2.3,5.6-3.4C978.8,745,976.9,746.1,975.1,747.2z"></path> <path d="M842,613.8c-43.2,15.8-72.1,50.3-86.2,102.5c27.8-42.9,57.7-55.7,96.1-68.4c35.7-11.9,51.7-30.7,54.7-34.6 c0.4-2.4,0.7-4.9,0.9-7.5C898.7,604.7,871.4,603,842,613.8z"></path> <path d="M754.6,730.3c-6.6,11.6-12.9,21.8-18.8,31c34.3-16.1,53-33.6,56.9-37.5c0.1-0.7,0.2-1.4,0.4-2.1 c5.2-21.4,31.6-36.6,56.7-48.6c30-14.3,46-28.8,48.5-31.2c0.8-1.7,3.4-7.9,5.7-16.7c-8.7,8.2-24.6,20-50.2,28.6 C812.5,667.6,783.3,680.4,754.6,730.3z"></path> <path d="M983.1,742.2c1.8-1.2,3.7-2.4,5.5-3.6C986.8,739.8,985,741.1,983.1,742.2z"></path> <path d="M967.1,751.8c1.9-1.1,3.8-2.2,5.7-3.3C970.9,749.7,969,750.8,967.1,751.8z"></path> <path d="M959.3,756.1c1.9-1,3.8-2,5.7-3.1C963.1,754,961.2,755.1,959.3,756.1z"></path> <path d="M936.7,766.8c1.9-0.8,3.8-1.7,5.7-2.5C940.6,765.1,938.6,766,936.7,766.8z"></path> <path d="M765.6,811c32.8-10.6,35.3-51.4,35.5-58c-2.3-3.2-4.1-6.3-5.6-9.5c-8.2,16.1-30.8,51.9-73.9,61.7c-2.9,0.7-5.9,1.5-9,2.4 c-1.8,1.5-60.8,51.1-75.7,76.7c-7.2,12.4-14,27.5-20.6,42.1c-5.8,12.9-11.8,25.9-18.2,37.8c19.7-21.8,42.4-48.3,58.4-71.9 C692,840,733.5,821.4,765.6,811z"></path> <path d="M944.1,763.6c1.9-0.9,3.8-1.8,5.8-2.7C947.9,761.8,946,762.7,944.1,763.6z"></path> <path d="M951.6,760c1.9-0.9,3.8-1.9,5.8-2.9C955.4,758.1,953.5,759.1,951.6,760z"></path> <path d="M543.2,1042.7c2.9-3.1,5.7-6.2,8.2-9.5C548.8,1036.4,546.1,1039.6,543.2,1042.7z"></path> <path d="M726,751.7c8.1-8.9,15.4-18.7,21.7-29.6l0.1,0c2.3-9.6,5-18.5,8.1-26.7c-17.7,22.2-44.3,50.5-64.9,51c-0.8,0-1.5,0-2.3,0 c-18.7,0-32.9-8.4-41.9-16.1c1.6,8.3,4.5,14.7,7.9,19.6C667.8,760.3,693.4,772.5,726,751.7z"></path> <path d="M503.6,1069.1c1.1-0.6,2.1-1.2,3.2-1.8C505.8,1067.9,504.7,1068.5,503.6,1069.1z"></path> <path d="M508.7,1066.3c1-0.6,2-1.1,2.9-1.6C510.7,1065.3,509.7,1065.8,508.7,1066.3z"></path> <path d="M555,1028.4c2.3-3.2,4.5-6.5,6.4-9.6C559.5,1021.9,557.3,1025.2,555,1028.4z"></path> <path d="M511.1,911.8L511.1,911.8c0,0,0-0.1,0-0.2c0.8-2.9,1.5-6.1,2-9.5l0-0.2c8.5-42,17.1-61.6,63-73.1 c27.2-6.8,89-22.3,135.4-63.1c-7.3,2.5-14.2,3.6-20.6,3.6c-7.6,0-14.5-1.5-20.6-3.7c-5.8,9.3-26,25.8-58,29.8 c-33.7,4.1-129.1,15.4-120.9,80.9c6.9,25,13.1,44.2,8.2,54.6C504.9,926.6,508.8,920.2,511.1,911.8z"></path> <path d="M491.7,1076c1.3-0.8,2.6-1.5,3.8-2.2C494.3,1074.5,493,1075.2,491.7,1076z"></path> <path d="M498,1072.3c1.2-0.7,2.4-1.4,3.5-2C500.3,1071,499.2,1071.6,498,1072.3z"></path> <path d="M551.3,970.7c20.5-9.8,33.6-41.3,36.1-67.3c1-10.6,6.4-21.1,13.6-30.5c-33.7,7.5-47.7,19.5-53.6,28.5 c-3.2,4.9-4.3,9.4-4.6,12.6c8.8,15.8,12.6,28,9.5,36.7c-3.5,9.8-31.4,15.7-33.7,5.1c-2,3.2-2.1,7.2-1,11.5 C529.5,974.5,540.9,975.7,551.3,970.7z"></path> <path d="M541.8,898.1c10-15.7,32-26.8,65.2-33l0.1,0.3c4-4.5,8.3-8.7,12.5-12.5c-16,5.5-38.4,12.1-57,15.7 c-29.5,5.7-44.3,42.4-45.4,45.3c-3.3,11.5-9.1,19.9-17.4,24.9c-2,1.2-4.1,2.1-6.2,2.9c13.6-0.4,35.2-12.4,42.7-25.1 C536.2,912.4,537,905.6,541.8,898.1z"></path> <path d="M904.6,643.8c2.1,4.1,7.7,16.4,9.9,34.6c1.5,12.1,1.4,28.4-3.4,47c8.6-17.4,16.5-39.5,22.4-67.5 c2.9-22.4-1.4-44.9-19.2-61C914.5,619.5,906.9,638.5,904.6,643.8z"></path> <path d="M522.7,1059c3.9-2.3,7.5-4.8,10.9-7.6C530.3,1054.2,526.6,1056.8,522.7,1059z"></path> <path d="M900,649.1c-6.3,5.4-21.9,17.6-47.4,29.8c-22.4,10.7-48.7,25.4-53.3,44.3c-2.1,8.5,0.4,17.3,7.5,26.7 c15.6,16.7,43.1,35.6,57.6,32c7.1-4.5,16.9-12.3,27.2-25.3C920.5,704.6,905.6,661.5,900,649.1z"></path> <path d="M610.6,923.8c6.7-14.7,13.6-29.9,20.9-42.6c11.4-19.7,46.2-51.5,64.9-68c-19.5,7.6-39.5,18.7-56.6,31.3l0,0 c-0.1,0.1-0.3,0.2-0.4,0.2c-25.1,18.5-44,40.3-45.8,59.3c-2.6,27.8-17.1,61.6-39.7,72.4c-5.1,2.4-10.4,3.7-15.9,3.7 c-5.2,0-10.6-1.1-16.1-3.4c7.7,11,23.3,20.8,42.7,19.9C583.4,983.7,597.2,953.3,610.6,923.8z"></path> <path d="M533.7,1051.5c3.4-2.8,6.6-5.7,9.5-8.8C540.2,1045.8,537.1,1048.7,533.7,1051.5z"></path> <path d="M690.7,740c29.9-0.6,78.4-73.4,78.9-74.1l0.3,0.2c20.3-33.5,47.4-50.2,70.2-58.4c30.4-11,58-9.5,67.8-8.4 c0.1-2.5,0-5-0.2-7.6c-9.4-6.5-21.5-11.7-37.2-14.7c-54.6-10.6-104.3,32.9-116.8,60.4c-12.5,27.6-46.9,120.8-108.3,82.4 c0,0.3,0,0.5,0.1,0.8C653.1,728.4,668.8,740.9,690.7,740z"></path> <path d="M513,1064c1.3-0.7,2.6-1.3,3.6-1.8C515.6,1062.7,514.4,1063.3,513,1064z"></path> <path d="M880.7,1845c-0.9,2.1-1.7,4.2-2.6,6.4c-0.8,1.9-1.5,3.8-2.2,5.7c-0.7,1.9-1.4,3.8-2.1,5.7c-0.7,1.9-1.3,3.7-1.8,5.6 s-1,3.6-1.4,5.4c-0.4,1.8-0.7,3.5-1,5.1c-0.2,1.7-0.4,3.3-0.4,4.8c0,0.8,0,1.5,0.1,2.2c0.1,1.5,0.3,2.9,0.7,4.2 c0.6,2,1.4,3.7,2.7,5.3c1.7,2,4,3.7,7.2,4.8c1.6,0.6,3.4,1,5.4,1.3c2.2,0.3,4.2,0.4,6.1,0.5c1.2,0,2.2-0.1,3.3-0.2 c0.5,0,1,0,1.5-0.1c1.5-0.2,3-0.5,4.3-0.9c0.1,0,0.1,0,0.2-0.1c1.3-0.4,2.5-0.9,3.6-1.5c0.4-0.2,0.8-0.5,1.1-0.7 c0.7-0.4,1.5-0.9,2.1-1.4c0.4-0.3,0.8-0.7,1.2-1c0.6-0.5,1.1-1,1.6-1.5c0.4-0.4,0.7-0.8,1-1.3c0.5-0.6,0.9-1.1,1.3-1.7 c0.3-0.5,0.6-1,0.9-1.5c0.4-0.6,0.7-1.3,1-1.9c0.3-0.5,0.5-1.1,0.7-1.7c0.3-0.7,0.6-1.4,0.8-2.1c0.2-0.6,0.4-1.2,0.6-1.8 c0.2-0.7,0.4-1.5,0.6-2.3c0.2-0.6,0.3-1.3,0.4-1.9c0.2-0.8,0.3-1.6,0.4-2.4c0.1-0.7,0.2-1.3,0.3-2c0.1-0.8,0.2-1.7,0.3-2.6 c0.1-0.7,0.1-1.4,0.2-2c0.1-0.9,0.1-1.8,0.1-2.7c0-0.7,0-1.3,0.1-2c0-1,0-2,0-2.9c0-0.6,0-1.3,0-1.9c0-1.1-0.1-2.2-0.2-3.3 c0-0.5-0.1-1.1-0.1-1.6c0-0.4-0.1-0.7-0.1-1.1C905.9,1850.7,893.2,1847.9,880.7,1845z"></path> <path d="M888.8,1813c0,0.3,0,0.7,0,1c0,1.4-0.1,2.9-0.2,4.2c0,0.6-0.1,1.1-0.2,1.7c-0.1,1.2-0.3,2.4-0.5,3.5 c-0.1,0.5-0.2,1-0.3,1.5c-0.3,1.6-0.7,3.2-1.2,4.7c-1,3-2.1,6.1-3.4,9.3c11.6,2.7,23.2,5.3,34.8,7.9c-0.1-0.8-0.2-1.5-0.2-2.4 c-0.1-0.7-0.1-1.4-0.2-2.1c-0.1-1.3-0.2-2.6-0.4-3.9c-0.1-0.9-0.2-1.9-0.2-2.9c-0.1-1.2-0.2-2.5-0.3-3.8c-0.1-1.1-0.2-2.3-0.3-3.5 c-0.1-1.2-0.2-2.5-0.3-3.7c-0.1-1.3-0.2-2.7-0.3-4.1c-0.1-1.2-0.2-2.4-0.3-3.7c-0.1-1.5-0.2-3-0.3-4.5c0-0.1,0-0.1,0-0.2 c-9-1.4-17.8-2.9-26.5-4.3C888.7,1809.5,888.8,1811.3,888.8,1813z"></path> <path d="M774.8,1813.3c0.2,0,0.5,0,0.7-0.1c0.4-0.1,0.7-0.3,1-0.4c0.3-0.1,0.7-0.2,0.9-0.4c0.3-0.2,0.4-0.4,0.6-0.7 c0.2-0.2,0.4-0.4,0.6-0.7c0.1-0.3,0.2-0.6,0.3-0.9c0.1-0.3,0.2-0.6,0.3-0.9c0-0.3,0-0.7,0-1c0-0.4,0-0.7,0-1.1 c0-0.4-0.2-0.8-0.2-1.1c-0.1-0.4-0.2-0.9-0.3-1.3c-0.1-0.4-0.3-0.8-0.4-1.2c-0.2-0.5-0.3-1-0.5-1.5c-0.1-0.4-0.3-0.8-0.5-1.2 c-0.2-0.6-0.5-1.2-0.7-1.8c-0.1-0.3-0.3-0.6-0.4-0.9c-0.3-0.7-0.6-1.4-1-2.1c-0.1-0.1-0.1-0.3-0.2-0.4c-1.3-2.7-2.8-5.4-4.1-8.1 c-0.1-0.2-0.2-0.5-0.4-0.7c-8.8-1.7-17.2-3.4-25.3-5.1c0.1,0.5,0.3,1.1,0.5,1.6c0.2,0.8,0.5,1.6,0.7,2.3c0.2,0.6,0.4,1.2,0.6,1.8 c0.3,0.7,0.5,1.5,0.8,2.2c0.2,0.6,0.5,1.2,0.7,1.7c0.3,0.7,0.6,1.4,0.9,2.1c0.3,0.6,0.6,1.2,0.9,1.7c0.3,0.6,0.7,1.3,1,1.9 c0.3,0.6,0.7,1.1,1,1.7c0.4,0.6,0.7,1.2,1.1,1.7c0.4,0.5,0.8,1.1,1.1,1.6c0.4,0.5,0.7,1,1.1,1.5c0.4,0.5,0.8,1,1.3,1.5 c0.4,0.4,0.8,0.9,1.2,1.3c0.5,0.5,0.9,0.9,1.4,1.3c0.4,0.4,0.8,0.8,1.2,1.1c0.5,0.4,1,0.7,1.6,1.1c0.3,0.2,0.5,0.4,0.8,0.6 C767,1811.4,770.9,1812.3,774.8,1813.3z"></path> <path d="M763.1,1810.4c0.1,0.1,0.3,0.2,0.4,0.3c0.6,0.3,1.2,0.6,1.7,0.9c0.4,0.2,0.8,0.4,1.2,0.6c0.7,0.3,1.3,0.4,2,0.6 c0.3,0.1,0.7,0.2,1,0.3c1,0.2,2.1,0.3,3.2,0.4c0.6,0,1.1-0.1,1.6-0.1c0.2,0,0.4,0,0.6-0.1C770.9,1812.3,767,1811.4,763.1,1810.4z"></path> <path d="M883.1,1839c-0.8,2-1.6,4-2.4,6c12.5,2.9,25.2,5.7,37.9,8.6c-0.1-1.3-0.2-2.5-0.3-3.8c-0.1-0.9-0.2-1.9-0.3-2.9 C906.2,1844.3,894.6,1841.6,883.1,1839z"></path> <path class="st2" d="M902.6,778.9c0.2-0.1,0.5-0.1,0.7-0.2C903,778.8,902.8,778.9,902.6,778.9z"></path> <path class="st2" d="M422.9,1122.2c0.7-0.5,1.4-1.1,2.1-1.6C424.4,1121.2,423.7,1121.7,422.9,1122.2z"></path> <path class="st2" d="M474.9,1086.3c0.9-0.6,1.9-1.2,2.8-1.8C476.8,1085.1,475.9,1085.7,474.9,1086.3z"></path> <path class="st2" d="M489.1,1077.6c0.9-0.5,1.8-1.1,2.6-1.6C490.9,1076.5,490,1077,489.1,1077.6z"></path> <path class="st2" d="M495.5,1073.7c0.8-0.5,1.6-1,2.4-1.4C497.2,1072.8,496.4,1073.3,495.5,1073.7z"></path> <path class="st2" d="M459.3,1096.5c0.8-0.6,1.7-1.1,2.5-1.7C461,1095.4,460.1,1095.9,459.3,1096.5z"></path> <path class="st2" d="M451.1,1102.1c0.6-0.4,1.2-0.8,1.8-1.2C452.3,1101.3,451.7,1101.7,451.1,1102.1z"></path> <path class="st2" d="M956.9,947.7c-0.6,2.3-1.3,4.6-2,7C955.7,952.4,956.3,950,956.9,947.7z"></path> <path class="st2" d="M467.3,1091.3c0.9-0.6,1.8-1.2,2.7-1.8C469.1,1090.1,468.2,1090.7,467.3,1091.3z"></path> <path class="st2" d="M501.4,1070.3c0.7-0.4,1.5-0.8,2.2-1.2C502.9,1069.5,502.2,1069.9,501.4,1070.3z"></path> <path class="st2" d="M482.2,1081.8c0.9-0.6,1.9-1.1,2.8-1.7C484.1,1080.6,483.2,1081.2,482.2,1081.8z"></path> <path class="st2" d="M891.2,781.9c0.2,0,0.4-0.1,0.6-0.1C891.5,781.9,891.3,781.9,891.2,781.9z"></path> <path class="st2" d="M885.9,783.1c0.2,0,0.3-0.1,0.5-0.1C886.2,783.1,886.1,783.1,885.9,783.1z"></path> <path class="st2" d="M896.7,780.6c0.2-0.1,0.4-0.1,0.7-0.2C897.1,780.4,896.9,780.5,896.7,780.6z"></path> <path class="st2" d="M908.6,777.1c0.3-0.1,0.6-0.2,0.8-0.3C909.2,777,908.9,777.1,908.6,777.1z"></path> <path class="st2" d="M511.6,1064.8c0.5-0.2,1-0.5,1.4-0.7C512.6,1064.2,512.1,1064.5,511.6,1064.8z"></path> <path class="st2" d="M506.8,1067.3c0.6-0.3,1.3-0.7,1.9-1C508.1,1066.6,507.4,1067,506.8,1067.3z"></path> <path class="st2" d="M876.4,785c0.1,0,0.2,0,0.4-0.1C876.7,784.9,876.5,785,876.4,785z"></path> <path class="st2" d="M872.2,785.7c0.1,0,0.2,0,0.3,0C872.4,785.7,872.3,785.7,872.2,785.7z"></path> <path class="st2" d="M881,784.1c0.1,0,0.3-0.1,0.4-0.1C881.3,784.1,881.1,784.1,881,784.1z"></path> <path class="st2" d="M762.1,952.7c-1.1-1.4-2.2-2.8-3.3-4.1C759.9,949.9,761,951.2,762.1,952.7z"></path> <path class="st2" d="M780.9,980.2c-1.3-2.2-2.6-4.4-4-6.6C778.2,975.8,779.6,978,780.9,980.2z"></path> <path class="st2" d="M753.1,941.7c-1.1-1.3-2.2-2.5-3.3-3.6C750.9,939.3,752,940.5,753.1,941.7z"></path> <path class="st2" d="M784.7,987c-1.1-2-2.2-4-3.3-5.9C782.5,983.1,783.6,985,784.7,987z"></path> <path class="st2" d="M795.6,1010.6c-0.8-2-1.6-3.9-2.4-5.9C794.1,1006.7,794.9,1008.6,795.6,1010.6z"></path> <path class="st2" d="M748.7,936.9c-1.1-1.1-2.1-2.2-3.1-3.2C746.6,934.7,747.6,935.8,748.7,936.9z"></path> <path class="st2" d="M792.6,1003.1c-1.1-2.4-2.2-4.8-3.3-7.2C790.4,998.3,791.5,1000.7,792.6,1003.1z"></path> <path class="st2" d="M788.7,994.8c-1-2-2-4-3-5.9C786.7,990.8,787.7,992.8,788.7,994.8z"></path> <path class="st2" d="M737.1,925.9c-1-0.8-2-1.6-2.9-2.3C735.1,924.3,736.1,925,737.1,925.9z"></path> <path class="st2" d="M422.2,1156.8c-1,0.5-2.1,1-3,1.4C420.1,1157.7,421.1,1157.3,422.2,1156.8z"></path> <path class="st2" d="M429.5,1153.5c-0.9,0.4-1.8,0.8-2.7,1.2C427.7,1154.3,428.6,1153.9,429.5,1153.5z"></path> <path class="st2" d="M524.3,1110.6c-7.6,4.7-15.2,9-22.5,12.8C509.1,1119.5,516.7,1115.3,524.3,1110.6z"></path> <path class="st2" d="M740.5,928.8c-0.9-0.8-1.7-1.5-2.5-2.2C738.8,927.3,739.7,928.1,740.5,928.8z"></path> <path class="st2" d="M404.7,1136.4c1-0.8,2-1.6,3-2.4C406.7,1134.8,405.7,1135.6,404.7,1136.4z"></path> <path class="st2" d="M541.4,1099.1c-3.8,2.7-7.6,5.3-11.4,7.8C533.8,1104.5,537.6,1101.9,541.4,1099.1z"></path> <path class="st2" d="M413.7,1129.3c0.9-0.7,1.8-1.4,2.7-2.1C415.5,1127.9,414.6,1128.6,413.7,1129.3z"></path> <path class="st2" d="M558.2,1085.9c-5.5,4.7-11.1,9.1-16.8,13.2C547.1,1095,552.7,1090.6,558.2,1085.9z"></path> <path class="st2" d="M433.2,1114.7c0.2-0.1,0.3-0.2,0.5-0.4C433.6,1114.4,433.4,1114.5,433.2,1114.7z"></path> <path class="st2" d="M1159.7,611.9c-1.1,1.7-2.1,3.3-3.1,5C1157.6,615.2,1158.6,613.5,1159.7,611.9z"></path> <path class="st2" d="M1155.9,617.8c-1.2,2-2.4,3.9-3.6,5.8C1153.5,621.7,1154.7,619.8,1155.9,617.8z"></path> <path class="st2" d="M1152,624.2c-1,1.6-2,3.2-2.9,4.8C1150,627.4,1151,625.8,1152,624.2z"></path> <path class="st2" d="M1148.3,630.3c-0.8,1.3-1.5,2.6-2.3,3.8C1146.7,632.9,1147.5,631.6,1148.3,630.3z"></path> <path class="st2" d="M1172.9,591.4c-1.3,1.9-2.5,3.8-3.7,5.7C1170.4,595.2,1171.7,593.3,1172.9,591.4z"></path> <path class="st2" d="M1145.3,635.4c-0.9,1.6-1.8,3.1-2.6,4.5C1143.5,638.5,1144.3,636.9,1145.3,635.4z"></path> <path class="st2" d="M1164.2,604.8c-1.2,1.9-2.4,3.7-3.6,5.6C1161.8,608.5,1163,606.7,1164.2,604.8z"></path> <path class="st2" d="M1168.7,597.8c-1.4,2.2-2.8,4.3-4.2,6.5C1165.9,602.2,1167.3,600,1168.7,597.8z"></path> <path class="st2" d="M1177.6,584.4c-1.3,1.9-2.6,3.8-3.8,5.8C1175.1,588.2,1176.3,586.3,1177.6,584.4z"></path> <path class="st2" d="M1142.5,640.2c-0.7,1.3-1.4,2.5-2.1,3.7C1141,642.7,1141.7,641.5,1142.5,640.2z"></path> <path class="st2" d="M1027.8,775.4c-3.3,2.4-6.7,4.8-10.1,7.2C1021.1,780.2,1024.5,777.8,1027.8,775.4z"></path> <path class="st2" d="M948.7,826.3c-3.3,1.9-6.5,3.6-9.5,5.2C942.2,829.8,945.4,828.1,948.7,826.3z"></path> <path class="st2" d="M959.4,937.3c-0.5,2.3-1,4.6-1.6,6.9C958.4,941.9,959,939.6,959.4,937.3z"></path> <path class="st2" d="M961.2,919.5c0,2.5-0.1,4.9-0.3,7.3C961.1,924.3,961.2,921.9,961.2,919.5z"></path> <path class="st2" d="M1139.8,645c-0.5,0.9-1,1.8-1.4,2.6C1138.8,646.8,1139.3,645.9,1139.8,645z"></path> <path class="st2" d="M1124.2,671.9c-9.1,13.5-20.7,28.8-30,40.6C1103.5,700.7,1115.1,685.5,1124.2,671.9z"></path> <path class="st2" d="M1094.2,712.6c-2.1,2.6-4,5-5.8,7.3C1090.2,717.6,1092.1,715.2,1094.2,712.6z"></path> <path class="st2" d="M1013.4,720.5c0.9-0.8,1.9-1.5,2.8-2.2C1015.2,719,1014.3,719.7,1013.4,720.5z"></path> <path class="st2" d="M949.9,760.8c0.6-0.3,1.2-0.5,1.7-0.8C951,760.3,950.4,760.5,949.9,760.8z"></path> <path class="st2" d="M957.4,757.1c0.6-0.3,1.3-0.6,1.9-1C958.6,756.4,958,756.7,957.4,757.1z"></path> <path class="st2" d="M942.5,764.3c0.5-0.2,1.1-0.5,1.6-0.7C943.5,763.8,943,764,942.5,764.3z"></path> <path class="st2" d="M965,753c0.7-0.4,1.4-0.7,2.1-1.1C966.4,752.2,965.7,752.6,965,753z"></path> <path class="st2" d="M921.5,772.8c0.4-0.1,0.7-0.3,1.1-0.4C922.3,772.5,921.9,772.7,921.5,772.8z"></path> <path class="st2" d="M1182.5,577.2c-1.5,2.2-3,4.4-4.5,6.6C1179.5,581.5,1181,579.3,1182.5,577.2z"></path> <path class="st2" d="M972.8,748.6c0.8-0.4,1.5-0.9,2.3-1.3C974.3,747.7,973.6,748.1,972.8,748.6z"></path> <path class="st2" d="M928.3,770.2c0.4-0.2,0.9-0.3,1.3-0.5C929.2,769.9,928.7,770.1,928.3,770.2z"></path> <path class="st2" d="M935.3,767.4c0.5-0.2,1-0.4,1.4-0.6C936.3,767,935.8,767.2,935.3,767.4z"></path> <path class="st2" d="M1022.1,713.2c0.8-0.7,1.6-1.4,2.5-2.1C1023.7,711.8,1022.9,712.5,1022.1,713.2z"></path> <path class="st2" d="M915,775.1c0.3-0.1,0.6-0.2,1-0.3C915.6,774.9,915.3,775,915,775.1z"></path> <path class="st2" d="M1191.3,564.6c-1.2,1.7-2.5,3.5-3.7,5.2C1188.9,568,1190.1,566.3,1191.3,564.6z"></path> <path class="st2" d="M980.6,743.8c0.8-0.5,1.7-1,2.5-1.6C982.3,742.8,981.5,743.3,980.6,743.8z"></path> <path class="st2" d="M1186.8,571c-1.4,2-2.7,3.9-4.1,5.9C1184.1,574.9,1185.4,572.9,1186.8,571z"></path> <path class="st2" d="M1005,727c1-0.7,1.9-1.4,2.9-2.1C1006.9,725.6,1005.9,726.3,1005,727z"></path> <path class="st2" d="M988.7,738.6c0.9-0.6,1.7-1.1,2.6-1.7C990.4,737.5,989.5,738,988.7,738.6z"></path> <path class="st2" d="M996.8,733c0.9-0.7,1.8-1.3,2.8-1.9C998.6,731.7,997.7,732.4,996.8,733z"></path> <path class="st2" d="M757.9,947.3c-1.4-1.7-2.7-3.3-4.1-4.8C755.1,944.1,756.5,945.7,757.9,947.3z"></path> <path class="st2" d="M741.4,929.6c1.1,1.1,2.3,2.2,3.5,3.4C743.7,931.8,742.5,930.7,741.4,929.6z"></path> <path class="st2" d="M763.3,954.1c2.8,3.6,5.6,7.5,8.4,11.6C768.9,961.6,766.1,957.7,763.3,954.1z"></path> <path class="st2" d="M796.4,1012.5c0.8,2.2,1.6,4.5,2.3,6.7c0,0,0,0,0,0C798,1017,797.2,1014.8,796.4,1012.5z"></path> <path class="st2" d="M948.7,978.3c0-0.1,0-0.2,0-0.3C948.7,978.1,948.7,978.2,948.7,978.3C948.7,978.3,948.7,978.3,948.7,978.3z"></path> <path class="st2" d="M772.7,967.2c1.1,1.6,2.2,3.3,3.3,5C774.9,970.5,773.8,968.9,772.7,967.2z"></path> <path class="st2" d="M1072.9,738c2.4-2.5,4.6-4.8,6.5-7.1c1.1-1.4,2.9-3.5,5-6.1c-2.1,2.6-3.8,4.7-5,6.1 C1077.5,733.2,1075.3,735.6,1072.9,738z"></path> <path class="st2" d="M948.8,977.5c0.3-1.6,0.7-3.2,1.1-4.7c1.6-6.3,3.4-12.2,5.1-18.1c-1.7,5.8-3.5,11.8-5.1,18.1 C949.5,974.3,949.1,975.9,948.8,977.5z"></path> <path class="st2" d="M1124.2,671.9c5.2-7.7,9.6-14.9,12.3-20.6c0.4-0.8,0.9-1.8,1.4-2.9c-0.5,1-1,2-1.4,2.9 C1133.8,657,1129.4,664.2,1124.2,671.9z"></path> <path class="st2" d="M1191.9,563.7c0.5-0.7,1.1-1.5,1.6-2.2c0,0,0,0,0,0C1193,562.2,1192.5,563,1191.9,563.7z"></path> <path class="st3" d="M864.6,1004.2c25.8-12.1,60.2-24.1,84-25.9c0-0.1,0-0.2,0.1-0.3c0-0.2,0.1-0.4,0.1-0.6 c0.3-1.6,0.7-3.2,1.1-4.7c1.6-6.3,3.4-12.2,5.1-18.1c0.7-2.3,1.3-4.7,2-7c0.3-1.2,0.6-2.3,0.9-3.5c0.6-2.3,1.1-4.6,1.6-6.9 c0.7-3.5,1.2-7,1.5-10.6c0.2-2.4,0.3-4.8,0.3-7.3c-0.2-20.9-9.3-44.8-40.4-79.2c4.6-1.8,10.9-4.9,18.4-8.8c3-1.6,6.2-3.3,9.5-5.2 c5-2.8,10.3-5.9,15.9-9.2c5.6-3.3,11.3-6.9,17.2-10.6c3.9-2.5,7.9-5,11.9-7.6c4-2.6,8-5.3,12-8c4-2.7,8-5.5,12-8.2 c3.4-2.4,6.8-4.8,10.1-7.2c2.4-1.8,4.9-3.6,7.3-5.3c14.9-11.2,28.2-22.2,37.9-32.1c2.4-2.5,4.6-4.8,6.5-7.1c1.1-1.4,2.9-3.5,5-6.1 c1.2-1.5,2.6-3.2,4-5c1.8-2.2,3.7-4.6,5.8-7.3c9.3-11.8,20.9-27.1,30-40.6c5.2-7.7,9.6-14.9,12.3-20.6c0.4-0.8,0.9-1.8,1.4-2.9 c0.2-0.3,0.3-0.6,0.5-0.9c0.4-0.8,0.9-1.7,1.4-2.6c0.2-0.3,0.4-0.7,0.6-1.1c0.7-1.2,1.3-2.4,2.1-3.7c0.1-0.1,0.1-0.2,0.2-0.3 c0.8-1.4,1.7-3,2.6-4.5c0.2-0.4,0.5-0.8,0.7-1.2c0.7-1.2,1.5-2.5,2.3-3.8c0.3-0.5,0.5-0.9,0.8-1.4c0.9-1.5,1.9-3.1,2.9-4.8 c0.1-0.2,0.2-0.4,0.4-0.6c1.2-1.9,2.4-3.8,3.6-5.8c0.2-0.3,0.4-0.7,0.6-1c1-1.6,2.1-3.3,3.1-5c0.3-0.5,0.6-1,0.9-1.5 c1.2-1.8,2.4-3.7,3.6-5.6c0.1-0.2,0.2-0.3,0.3-0.5c1.4-2.1,2.8-4.3,4.2-6.5c0.2-0.2,0.3-0.5,0.5-0.7c1.2-1.9,2.5-3.8,3.7-5.7 c0.3-0.4,0.6-0.9,0.9-1.3c1.3-1.9,2.6-3.8,3.8-5.8c0.1-0.2,0.3-0.4,0.4-0.6c1.5-2.2,3-4.4,4.5-6.6c0.1-0.1,0.1-0.2,0.2-0.2 c1.4-2,2.7-4,4.1-5.9c0.3-0.4,0.5-0.8,0.8-1.2c1.2-1.8,2.5-3.5,3.7-5.2c0.2-0.3,0.4-0.6,0.6-0.9c0.5-0.7,1.1-1.5,1.6-2.2 c-3.8-7.9-10.4-14.2-17.4-19c-0.4,0.8-0.7,1.5-0.9,1.9c-0.1,0.1-0.2,0.3-0.3,0.6c-0.6,1-2,3.1-4.1,6c-2.6,3.7-6.4,8.8-11.3,15.2 c-2,2.5-4.1,5.3-6.4,8.2c-2.3,2.9-4.8,6-7.5,9.3c-24,29.5-62.1,72.7-112.7,119.8c-2.8,2.6-5.6,5.1-8.4,7.6 c-0.8,0.7-1.6,1.4-2.5,2.1c-2,1.7-3.9,3.4-5.9,5c-0.9,0.8-1.9,1.5-2.8,2.2c-1.8,1.5-3.7,3-5.5,4.4c-1,0.7-1.9,1.4-2.9,2.1 c-1.8,1.4-3.6,2.8-5.4,4.1c-0.9,0.7-1.8,1.3-2.8,1.9c-1.8,1.3-3.7,2.6-5.5,3.8c-0.9,0.6-1.8,1.2-2.6,1.7c-1.8,1.2-3.7,2.5-5.5,3.6 c-0.8,0.5-1.7,1-2.5,1.6c-1.9,1.2-3.7,2.3-5.6,3.4c-0.8,0.5-1.5,0.9-2.3,1.3c-1.9,1.1-3.8,2.2-5.7,3.3c-0.7,0.4-1.4,0.8-2.1,1.1 c-1.9,1.1-3.8,2.1-5.7,3.1c-0.6,0.3-1.3,0.7-1.9,1c-1.9,1-3.9,2-5.8,2.9c-0.6,0.3-1.2,0.6-1.7,0.8c-1.9,0.9-3.9,1.9-5.8,2.7 c-0.5,0.2-1.1,0.5-1.6,0.7c-1.9,0.9-3.9,1.7-5.7,2.5c-0.5,0.2-1,0.4-1.4,0.6c-1.9,0.8-3.8,1.6-5.7,2.3c-0.4,0.2-0.9,0.3-1.3,0.5 c-1.9,0.7-3.8,1.5-5.7,2.2c-0.4,0.1-0.7,0.3-1.1,0.4c-1.9,0.7-3.8,1.4-5.6,2c-0.3,0.1-0.6,0.2-1,0.3c-1.9,0.6-3.7,1.2-5.5,1.8 c-0.3,0.1-0.6,0.2-0.8,0.3c-1.8,0.6-3.6,1.1-5.4,1.6c-0.2,0.1-0.5,0.1-0.7,0.2c-1.8,0.5-3.5,1-5.2,1.4c-0.2,0.1-0.4,0.1-0.7,0.2 c-1.7,0.4-3.4,0.9-5,1.3c-0.2,0-0.4,0.1-0.6,0.1c-1.6,0.4-3.2,0.8-4.7,1.1c-0.2,0-0.3,0.1-0.5,0.1c-1.5,0.3-3,0.6-4.5,0.9 c-0.1,0-0.3,0.1-0.4,0.1c-1.5,0.3-2.9,0.5-4.2,0.8c-0.1,0-0.2,0-0.4,0.1c-1.4,0.2-2.7,0.5-3.9,0.6c-0.1,0-0.2,0-0.3,0 c-0.3,0-0.5,0.1-0.8,0.1c-3.2,2.1-6.8,3.1-10.8,3.1c-2.6,0-5.4-0.4-8.3-1.1c-8.5,5.8-36.8,23-60.8,12.7 c-5.7,7.1-13.4,13.2-24,16.6c-31.2,10.1-71.4,28.2-105.7,78.8c-26.8,39.5-71.8,86.9-91.1,107.1c-1.2,2.1-2.5,4.4-3.9,6.8 c-1.7,2.9-3.5,5.9-5.4,9.1c-2,3.1-4.1,6.4-6.4,9.6c-1.2,1.6-2.4,3.2-3.6,4.8c-2.5,3.2-5.2,6.4-8.2,9.5c-2.9,3.1-6.1,6-9.5,8.8 c-3.4,2.8-7,5.3-10.9,7.6c-1.9,1.1-4,2.2-6,3.2c-1.1,0.5-2.3,1.1-3.6,1.8c-0.4,0.2-1,0.5-1.4,0.7c-0.9,0.5-1.9,1-2.9,1.6 c-0.6,0.3-1.2,0.7-1.9,1c-1,0.6-2.1,1.1-3.2,1.8c-0.7,0.4-1.4,0.8-2.2,1.2c-1.1,0.6-2.3,1.3-3.5,2c-0.8,0.5-1.6,0.9-2.4,1.4 c-1.2,0.7-2.5,1.5-3.8,2.2c-0.9,0.5-1.7,1-2.6,1.6c-1.3,0.8-2.7,1.6-4.1,2.5c-0.9,0.6-1.8,1.1-2.8,1.7c-1.5,0.9-3,1.8-4.5,2.8 c-0.9,0.6-1.9,1.2-2.8,1.8c-1.6,1-3.3,2.1-4.9,3.1c-0.9,0.6-1.8,1.2-2.7,1.8c-1.8,1.2-3.6,2.4-5.5,3.6c-0.8,0.6-1.7,1.1-2.5,1.7 c-2.1,1.4-4.3,2.9-6.4,4.4c-0.6,0.4-1.2,0.8-1.8,1.2c-5.7,3.9-11.5,8-17.3,12.2c-0.2,0.1-0.3,0.2-0.5,0.4c-2.7,2-5.4,4-8.2,6 c-0.7,0.5-1.4,1.1-2.1,1.6c-2.2,1.6-4.4,3.3-6.6,5c-0.9,0.7-1.8,1.4-2.7,2.1c-2,1.5-4,3.1-6,4.7c-1,0.8-2,1.6-3,2.4 c-1.4,1.1-2.8,2.2-4.2,3.4c4,6.9,9.3,14.3,15.9,19.8c0.9-0.5,1.8-0.9,2.7-1.4c1-0.5,2-1,3-1.4c1.5-0.7,3-1.4,4.6-2.1 c0.9-0.4,1.8-0.8,2.7-1.2c2.6-1.1,5.3-2.2,8.1-3.2c3.2-1.2,7.3-2.7,12.1-4.4c1.2-0.4,2.4-0.9,3.7-1.4c2.6-1,5.3-2,8.2-3.1 c11.5-4.5,25.4-10.4,40.1-18c7.3-3.8,14.9-8,22.5-12.8c1.9-1.2,3.8-2.4,5.7-3.6c3.8-2.5,7.6-5.1,11.4-7.8 c5.7-4.1,11.3-8.5,16.8-13.2c12.8-11,24.9-23.6,35.4-38.2c6.9-8.7,14.6-18.2,22.6-27.9c3.2-3.9,6.5-7.8,9.8-11.7 c1.7-2,3.3-3.9,5-5.9c5-5.9,10.1-11.7,15.2-17.4c1.7-1.9,3.4-3.8,5.1-5.6c10.2-11.2,20.5-21.6,30.1-30.5 c22.6-20.7,42.3-32.9,52.8-25.2c0,0,0,0,0,0c0.9,0.7,1.9,1.5,2.9,2.3c0.3,0.2,0.6,0.5,0.9,0.8c0.8,0.7,1.6,1.4,2.5,2.2 c0.3,0.3,0.6,0.5,0.9,0.8c1.1,1.1,2.3,2.2,3.5,3.4c0.2,0.2,0.4,0.4,0.7,0.7c1,1,2.1,2.1,3.1,3.2c0.4,0.4,0.7,0.8,1.1,1.2 c1.1,1.2,2.2,2.4,3.3,3.6c0.2,0.3,0.5,0.5,0.7,0.8c1.3,1.5,2.7,3.1,4.1,4.8c0.3,0.4,0.6,0.8,1,1.2c1.1,1.3,2.2,2.7,3.3,4.1 c0.4,0.5,0.7,1,1.1,1.4c2.8,3.6,5.6,7.5,8.4,11.6c0.4,0.5,0.7,1,1.1,1.6c1.1,1.6,2.2,3.3,3.3,5c0.3,0.5,0.6,1,0.9,1.5 c1.4,2.2,2.7,4.3,4,6.6c0.2,0.3,0.3,0.6,0.5,0.9c1.1,1.9,2.2,3.9,3.3,5.9c0.3,0.6,0.7,1.2,1,1.8c1,2,2.1,3.9,3,5.9 c0.2,0.4,0.4,0.7,0.6,1.1c1.1,2.4,2.2,4.8,3.3,7.2c0.2,0.5,0.4,1,0.7,1.6c0.8,2,1.6,3.9,2.4,5.9c0.3,0.6,0.5,1.3,0.7,1.9 c0.8,2.2,1.6,4.5,2.3,6.7C807.9,1018.7,840,1015.8,864.6,1004.2z"></path> <path class="st0" d="M801.9,1080.7C801.9,1080.8,801.9,1080.8,801.9,1080.7c-1.3,4.4-2.6,8.7-3.9,13 C799.3,1089.4,800.7,1085.1,801.9,1080.7C801.9,1080.8,801.9,1080.8,801.9,1080.7z"></path> <path class="st0" d="M962.6,1102.3c-0.5-1.1-0.9-2.1-1.3-3.1c-0.3-0.8-0.6-1.6-1-2.5c0.3,0.9,0.7,1.8,1,2.5 C961.7,1100.2,962.2,1101.2,962.6,1102.3z"></path> <path class="st0" d="M955.8,1081.4c0.3,1.4,0.7,2.7,1,3.9C956.5,1084.1,956.1,1082.8,955.8,1081.4z"></path> <path class="st0" d="M983.7,1166.2c0-0.2-0.1-0.5-0.1-0.7C983.6,1165.7,983.7,1166,983.7,1166.2L983.7,1166.2z"></path> <path class="st0" d="M955.7,1081.1c-0.8-3.1-1.6-6.4-2.3-9.9c0,0,0,0,0,0C954.1,1074.7,954.9,1078,955.7,1081.1z"></path> <path class="st0" d="M956.9,1085.6c0.7,2.6,1.4,5,2.1,7.1C958.3,1090.6,957.6,1088.2,956.9,1085.6z"></path> <path class="st0" d="M777.6,1162.6c0.1-0.3,0.1-0.6,0.2-0.8C777.7,1162.1,777.7,1162.3,777.6,1162.6z"></path> <path class="st0" d="M964.6,1106.9c0.2,0.4,0.4,0.8,0.5,1.2C965,1107.7,964.8,1107.3,964.6,1106.9z"></path> <path class="st0" d="M976.4,1137.1c0.1,0.2,0.1,0.4,0.2,0.7C976.5,1137.5,976.4,1137.3,976.4,1137.1z"></path> <path class="st0" d="M965.8,1109.6C965.8,1109.6,965.8,1109.6,965.8,1109.6C965.8,1109.6,965.8,1109.6,965.8,1109.6z"></path> <path class="st0" d="M793.9,1106.9c1.3-4,2.5-8,3.8-11.9C796.4,1099,795.1,1103,793.9,1106.9z"></path> <path class="st0" d="M986.8,1183.5c0.1,0.4,0.1,0.8,0.2,1.2C986.9,1184.3,986.9,1183.9,986.8,1183.5z"></path> <path class="st0" d="M981.8,1157.2c0.1,0.3,0.1,0.6,0.2,0.9C981.9,1157.8,981.8,1157.5,981.8,1157.2z"></path> <path class="st0" d="M980,1150c0,0.2,0.1,0.3,0.1,0.4C980.1,1150.2,980.1,1150.1,980,1150z"></path> <path class="st0" d="M978.3,1143.5C978.3,1143.5,978.3,1143.5,978.3,1143.5C978.3,1143.5,978.3,1143.5,978.3,1143.5z"></path> <path class="st0" d="M974.5,1131.4c0.1,0.2,0.1,0.4,0.2,0.6C974.6,1131.7,974.6,1131.6,974.5,1131.4z"></path> <path class="st0" d="M959.3,1093.6c0.3,0.8,0.5,1.5,0.8,2.2C959.8,1095.1,959.5,1094.3,959.3,1093.6z"></path> <path class="st0" d="M962.8,1102.7c0.4,1,0.9,2,1.3,3.1C963.7,1104.7,963.2,1103.7,962.8,1102.7z"></path> <path class="st0" d="M781,1178.8c1.1,3.5,1,6.8-1,9.8c8.3,0.2,19.8,0.9,32.6,3.1c0.8-1.5,2-2.7,3.7-3.6c3.6-1.7,7.1-1.5,10.3,1 c0.4,0.3,0.9,0.8,1.1,1.4c0.5,1.5,0.9,3.1,0.9,4.7c17.7,4.6,33.1,11.6,45.8,20.7c1.2,0.2,2.3,0.6,3.4,1.5c0.8,0.6,1.4,1.5,2,2.6 c7.1,5.7,13.2,12.2,18.3,19.4c1.3-2.4,2.8-4.7,4.3-6.9c-3.5-0.3-7.2-3.7-8-6.9c-0.9-3.6,0.9-8,4.6-9.7c1.2-0.5,2.5-0.7,3.8-1 c0,0,0-0.1,0-0.1c0.1,0,0.3,0,0.4,0.1c0.1,0,0.3-0.1,0.4-0.1c0,0,0,0.1,0,0.1c0.9,0.1,1.8,0.2,2.7,0.3c2.2,0.3,4.4,1,5.6,2.8 c0.5,0.7,0.8,1.4,1,2.2c10.7-10.1,24.7-18.1,41.5-23.6c13.3-4.3,25.4-6.2,33.2-7.1c-0.2-1.6-0.5-3.2-0.7-4.7 c-0.1-0.4-0.1-0.8-0.2-1.2c0-0.2-0.1-0.4-0.1-0.6c-1.3,0.2-2.8,0.2-3.9-0.1c-5.6-1.4-7.3-8.3-6.6-11.9c0.6-3,3-4.9,6-5 c0.4,0,0.9,0.1,1.5,0.2c0-0.2-0.1-0.5-0.1-0.7c-0.5-2.6-1.1-5-1.6-7.4c-0.1-0.3-0.1-0.6-0.2-0.9c-0.5-2.3-1.1-4.6-1.6-6.8 c0-0.2-0.1-0.3-0.1-0.4c-0.6-2.2-1.1-4.4-1.7-6.4c0,0,0,0,0-0.1c-0.6-2-1.1-3.9-1.7-5.8c-0.1-0.2-0.1-0.4-0.2-0.7 c-0.6-1.8-1.1-3.5-1.7-5.1c-0.1-0.2-0.1-0.4-0.2-0.6c-0.9-2.7-1.8-5.2-2.7-7.5c-0.9,0.3-1.9,0.4-3.1,0.3c-2.9-0.3-4.8-2.3-5.3-5.3 c-0.1-0.3-0.1-0.6-0.1-0.9c0,0,0,0-0.1,0c0-0.1,0-0.2,0-0.2c0,0,0,0,0,0c0,0,0,0,0,0c0.5-2.3,1.1-4.5,3.4-5.6 c0.1,0,0.2-0.1,0.2-0.1c-0.3-0.8-0.7-1.6-1-2.3c0,0,0,0,0-0.1c-0.2-0.5-0.4-1-0.6-1.4c-0.2-0.4-0.4-0.8-0.5-1.2 c-0.2-0.4-0.3-0.7-0.5-1.1c-0.5-1-0.9-2.1-1.3-3.1c-0.1-0.2-0.1-0.3-0.2-0.5c-0.5-1.1-0.9-2.1-1.3-3.1c-0.3-0.8-0.6-1.6-1-2.5 c-0.1-0.3-0.2-0.5-0.3-0.8c-0.3-0.7-0.5-1.5-0.8-2.2c-0.1-0.3-0.2-0.5-0.3-0.8c-0.7-2.2-1.4-4.5-2.1-7.1c0-0.1,0-0.2-0.1-0.3 c-0.3-1.3-0.7-2.6-1-3.9c0-0.1-0.1-0.2-0.1-0.3c-0.8-3.1-1.6-6.4-2.3-9.9c-19,8-53.3,10.9-79.8,10.9c-11.5,0-21.4-0.5-28-1.5 c-18.5-2.5-35.4-2.1-43.2-1.7c-0.2,0.6-0.3,1.2-0.4,1.8c0,0,0,0,0,0c-1.2,4.3-2.6,8.7-3.9,13c-0.1,0.4-0.3,0.8-0.4,1.2 c-1.2,4-2.5,7.9-3.8,11.9c-1.5,4.6-2.9,9.2-4.4,13.8c0.2,1.2,0.1,2.4-0.4,3.6c0,0-0.1,0-0.1,0c-0.3,0.8-0.8,1.5-1.3,2.1 c-1.7,5.4-3.3,10.9-4.9,16.4c2.1-0.3,4.4,1,5,3.2c0.4,1.5,0.8,3,1.3,4.5c0.3,0.8,0,1.1-0.6,1.5c-0.2,0.1-0.3,0.5-0.4,0.8 c1.4,0.5,0.7,1.5,0.5,2.3c-0.7,2.3-2.9,3.8-5.4,3.9c-1.6,0-3.1-0.6-4.3-1.5c-0.4,1.4-0.8,2.8-1.1,4.3c-0.1,0.3-0.1,0.6-0.2,0.8 c-0.9,3.9-1.7,7.8-2.5,11.7C777.6,1175.2,780.4,1176.8,781,1178.8z M933.5,1200.7c-0.9,2.2-2.9,3.7-5.3,4.4 c-0.9,0.2-1.8,0.3-2.7,0.5c-3.5,0.1-6.6-2-8-5.5c-1.4-3.4-0.5-7.2,2.2-9.8c2.3-2.1,4.9-3,7.9-2.5c0.9,0.1,1.8,0.5,2.4,1 C933.4,1191.4,935.1,1197,933.5,1200.7z M950.1,1165.8c-1.7,3.5-5.6,5.6-9.4,5c-1.6-0.3-3.2-0.4-4.8-0.8c-4.1-1-5.6-5.6-4.7-9 c1.3-5,6.2-7.8,10.2-7.8C947.1,1152.8,953.1,1159.6,950.1,1165.8z M964.3,1141c0.1,3.5-2.5,6.5-6,6.7c-3.6,0.2-6.5-2.4-6.7-6 c-0.1-3.6,2.5-7,5.6-7.1C960,1134.5,964.2,1137.4,964.3,1141z M949.1,1082.7c1.3-0.4,2.7-0.6,4-0.5c2.6,0.2,4.3,2.9,3.7,5.4 c-0.2,1.1-0.4,2.2-0.5,3.3c-0.2,1.2-0.3,2.4-2.3,2c0.4,0.7,0.6,1.1,0.8,1.5c-2.4,4.2-7.8,4.1-10.4,0.3 C940.9,1089.9,943.8,1084.2,949.1,1082.7z M933.3,1112.4c3.9-4.2,12-3,14.2,2.3c0.4,1,0.3,2.3,0.4,3.5c0,0,0,0,0.1,0 c0,0.1,0,0.2,0,0.3c0,0,0,0,0,0c0,0,0,0,0,0c-0.6,4.3-4.1,6.7-8.5,6.5c-3.2-0.1-5.8-1.5-7.3-4.5c-0.2-0.4-0.3-0.9-0.4-1.4 c-0.1,0-0.2,0-0.4,0C931.3,1116.7,931.6,1114.4,933.3,1112.4z M931.2,1143.4c-0.2,1.6-0.5,3.1-1.2,4.6c-1.3,2.6-4.7,4.9-7.6,5 c-3.8,0.1-6.6-2-7.8-6.2c-0.6-2.3-1.2-4.7,0.4-6.8c3.5-4.7,9.5-7,14.2-2.7C930.8,1139,931.6,1140.9,931.2,1143.4z M918.8,1087.5 c1.9,0.5,3.1,1.9,4,3.6c0.1,0.2,0.2,0.6,0.4,0.7c1.3,0.8,1.4,2.1,1.5,3.4c0.2,2.5-0.9,4.3-2.9,5.4c-2,1.1-4.1,1.4-6.1-0.2 c-2.5-2-4.4-4.2-3.9-7.7C912.4,1089.3,915.7,1086.7,918.8,1087.5z M899,1112.2c0-0.3,0-0.5,0-0.8c0.9-0.2,1.7-0.5,2.6-0.6 c2-0.1,3.9,1.2,4.5,3c0.5,1.5,0.8,3.1,1.3,4.6c0.3,0.8,0,1.2-0.5,1.6c-0.2,0-0.5,0-0.7,0c0,0.2,0.1,0.3,0.1,0.3 c1.5,0.7,0.9,1.8,0.4,2.7c-1.7,3-3.5,4.1-7.2,3.4c0-0.1,0-0.3,0-0.4c-2.4-1.1-4.2-2.8-4.5-5.7c0,0-0.1,0-0.1,0 C894.5,1116.7,896.3,1114.2,899,1112.2z M894.5,1168.1c1.4-2.6,3.6-4.1,6.4-4.7c0,0,0-0.1,0-0.1c2.8-0.5,5.4,0,7.6,1.9 c0.8,0.7,1.4,2,1.5,3c0.2,2.3,0,4.5-1,6.7c-1.3,2.9-3.6,4.5-6.5,5.2c0,0-0.1,0-0.1,0c0,0,0,0.1,0,0.1 C895.1,1181,891.9,1172.8,894.5,1168.1z M889.2,1138.2c1.7,3.2,1.3,6.1-0.7,9c-1.1,1.5-2.7,1.8-4.2,2.1c-3.9-0.2-6.7-1.9-7.6-6 c-0.7-3.1,1.4-6.5,4.9-8C885.1,1133.9,887.5,1135,889.2,1138.2z M885.5,1120.8C885.4,1120.8,885.4,1120.8,885.5,1120.8 c-1.1,2.9-3.3,4.5-6.3,5c-2.6,0.4-6.1-1.9-6.8-4.5c-0.1,0-0.3,0-0.4,0c-0.4-2.5,0.1-4.7,1.4-6.8c1.9-3,6.3-3.8,9.2-1.7 C884.7,1114.3,886.1,1118.3,885.5,1120.8z M870.4,1088.6c1-4.6,6.6-6.6,10.3-3.7c1.6,1.2,3.4,2.3,3.7,4.7c0.4,3.2-1.4,6.4-4.3,7.5 c-0.8,0.3-1.8,0.3-2.8,0.4C872.1,1098,869.4,1093.4,870.4,1088.6z M872.2,1182.2c2.5-0.1,4.4,1.5,5.2,3.9c0.7,2,1.3,4,0.7,6.1 c-0.7,2.2-2.2,4.4-5,4.8c-2.5,0.5-5.6-0.6-6.8-2.6c-0.6-1.1-0.9-2.5-1.3-3.8C864.9,1185.9,867.8,1182.3,872.2,1182.2z M856.5,1167.4c-2.6,1.5-5.4,1.4-7.9-0.2c-2.1-1.4-3.4-3.5-3-6.3c0.4-3,3.8-6.7,6.6-6.9c4.1-0.4,7.4,2.9,7.4,6.1 C859.7,1163.8,859,1166,856.5,1167.4z M842.7,1122.1C842.7,1122.1,842.7,1122.1,842.7,1122.1c0.7-5.3,4.5-8.4,9.5-7.9 c3.3,0.3,5.3,2.2,6.4,5.2c0.2,0.6,0.1,1.4,0,2.1c0,0,0,0,0,0c0.8,4-2.2,8-6.3,8.4c-5.2,0.5-9.1-2.3-9.6-7.6c0,0,0,0-0.1,0 C842.7,1122.3,842.7,1122.2,842.7,1122.1C842.7,1122.1,842.7,1122.1,842.7,1122.1z M837,1140.3c-0.7,2.8-3.1,4.5-6.1,4.4 c-4.7,0.5-7.5-4.9-6.1-8.6c0.2-0.4,0.2-1,0.2-1.4c0.1-2.1,1-3.7,2.9-4.7c1.7-0.9,3.5-0.7,5.1,0.3c2.5,1.6,4.1,3.7,4.1,6.8 C837.1,1138.2,837.2,1139.3,837,1140.3z M830.2,1082.3c5.6,2.2,7.1,9,3.7,13.4c-1.8,2.3-4,3.8-6.8,3.9c-2.9,0.1-4.9-0.6-6.2-3.1 c-0.8-1.5-1.7-2.8-2.1-4.6C817.1,1084.3,824.8,1080.2,830.2,1082.3z M803.9,1117.2c2.8-2.9,6.5-2,8.8,0c1.8,1.6,2.4,3.6,2.1,5.9 c0,0,0,0,0,0c0,2.2-0.8,3.9-2.7,5.1c-3.8,2.5-9.1,1-10.9-3.2c-0.2-0.4-0.2-0.8-0.2-1.2c-0.1,0-0.2,0-0.3,0 C800.8,1121.2,802,1119.2,803.9,1117.2z M806.9,1154.8c0.7-0.1,1.5-0.3,2-0.4c3.9,0,6.7,1.5,8.9,4.3c1.2,1.6,1.3,3.3,0.5,5.1 c-1,2-2,3.9-3.8,5.3c-2.3,1.8-5,2.4-7.7,1.7c-4.9-1.3-6.1-3.8-6.2-7.9C800.4,1159.1,802.9,1155.6,806.9,1154.8z"></path> <path d="M912.9,1220.2c-0.3-0.8-0.6-1.5-1-2.2c-1.2-1.9-3.4-2.5-5.6-2.8c-0.9-0.1-1.8-0.2-2.7-0.3c0,0,0-0.1,0-0.1 c-0.1,0-0.3,0.1-0.4,0.1c-0.1,0-0.3,0-0.4-0.1c0,0,0,0.1,0,0.1c-1.3,0.2-2.7,0.4-3.8,1c-3.7,1.7-5.5,6.1-4.6,9.7 c0.8,3.2,4.5,6.5,8,6.9C905.4,1228,908.9,1223.9,912.9,1220.2z"></path> <path d="M902.3,1180.3c0,0,0-0.1,0-0.1c0,0,0.1,0,0.1,0c3-0.7,5.2-2.3,6.5-5.2c1-2.2,1.2-4.4,1-6.7c-0.1-1.1-0.7-2.3-1.5-3 c-2.1-1.9-4.8-2.4-7.6-1.9c0,0,0,0.1,0,0.1c-2.8,0.6-4.9,2.1-6.4,4.7C891.9,1172.8,895.1,1181,902.3,1180.3z"></path> <path d="M873.4,1114.4c-1.4,2.1-1.9,4.4-1.4,6.8c0.1,0,0.3,0,0.4,0c0.7,2.6,4.2,4.9,6.8,4.5c3-0.5,5.2-2.1,6.2-5c0,0,0,0,0.1,0 c0.7-2.4-0.8-6.5-2.9-8C879.7,1110.7,875.3,1111.5,873.4,1114.4z"></path> <path d="M828.6,1195.2c0-1.6-0.5-3.2-0.9-4.7c-0.2-0.5-0.6-1-1.1-1.4c-3.2-2.5-6.7-2.7-10.3-1c-1.7,0.8-2.9,2-3.7,3.6 c1.5,0.3,2.9,0.5,4.4,0.8C821,1193.3,824.8,1194.2,828.6,1195.2z"></path> <path d="M806.7,1170.9c2.7,0.7,5.4,0.1,7.7-1.7c1.8-1.4,2.8-3.3,3.8-5.3c0.9-1.8,0.7-3.5-0.5-5.1c-2.2-2.8-5-4.3-8.9-4.3 c-0.5,0.1-1.2,0.2-2,0.4c-3.9,0.8-6.5,4.3-6.4,8.1C800.6,1167.1,801.7,1169.6,806.7,1170.9z"></path> <path d="M780,1188.6c2-3,2.2-6.3,1-9.8c-0.7-2.1-3.4-3.6-6-4.4c-0.9,4.7-1.8,9.5-2.5,14.3C774.6,1188.6,777.1,1188.6,780,1188.6z"></path> <path d="M877.8,1217.3c-1-0.8-2.2-1.3-3.4-1.5c1.8,1.3,3.6,2.6,5.3,4C879.2,1218.8,878.5,1217.9,877.8,1217.3z"></path> <path d="M781.2,1148.7c0.1-0.3,0.1-0.5,0.2-0.8C781.3,1148.1,781.2,1148.4,781.2,1148.7z"></path> <path d="M783.2,1159c2.5-0.1,4.7-1.6,5.4-3.9c0.2-0.7,0.9-1.8-0.5-2.3c0.1-0.3,0.2-0.7,0.4-0.8c0.7-0.4,0.9-0.7,0.6-1.5 c-0.5-1.5-0.9-3-1.3-4.5c-0.7-2.2-2.9-3.5-5-3.2c-0.5,1.7-1,3.4-1.5,5.1c-0.1,0.3-0.1,0.5-0.2,0.8c-0.8,2.9-1.5,5.9-2.3,8.8 C780.1,1158.4,781.6,1158.9,783.2,1159z"></path> <path d="M852.3,1154c-2.7,0.2-6.1,3.9-6.6,6.9c-0.4,2.8,0.9,5,3,6.3c2.4,1.5,5.2,1.6,7.9,0.2c2.4-1.3,3.2-3.6,3.1-7.3 C859.6,1156.8,856.3,1153.6,852.3,1154z"></path> <path d="M873.1,1197.1c2.8-0.5,4.3-2.6,5-4.8c0.6-2.2,0-4.1-0.7-6.1c-0.8-2.3-2.7-3.9-5.2-3.9c-4.4,0.1-7.3,3.7-7.1,8.4 c0.4,1.3,0.6,2.7,1.3,3.8C867.5,1196.5,870.5,1197.5,873.1,1197.1z"></path> <path d="M833,1130.3c-1.6-1-3.4-1.3-5.1-0.3c-1.9,1-2.8,2.6-2.9,4.7c0,0.5,0,1-0.2,1.4c-1.4,3.8,1.4,9.1,6.1,8.6 c2.9,0.1,5.4-1.6,6.1-4.4c0.2-1,0.1-2.1,0.1-3.2C837.1,1134.1,835.5,1131.9,833,1130.3z"></path> <path d="M881.7,1135.3c-3.5,1.5-5.6,4.9-4.9,8c0.9,4.1,3.8,5.8,7.6,6c1.5-0.3,3.1-0.5,4.2-2.1c2-2.9,2.4-5.8,0.7-9 C887.5,1135,885.1,1133.9,881.7,1135.3z"></path> <path d="M931.9,1119.1c0.1,0.5,0.2,1,0.4,1.4c1.5,3,4.1,4.4,7.3,4.5c4.3,0.2,7.9-2.2,8.5-6.5c0,0,0,0,0,0c0,0,0,0,0,0 c0-0.1,0-0.2,0-0.3c0,0,0,0-0.1,0c-0.1-1.2,0.1-2.5-0.4-3.5c-2.2-5.2-10.4-6.5-14.2-2.3c-1.8,1.9-2,4.2-1.9,6.7 C931.6,1119.1,931.7,1119.1,931.9,1119.1z"></path> <path d="M969.1,1117.1c0.1,0.2,0.1,0.4,0.2,0.5C969.2,1117.5,969.2,1117.3,969.1,1117.1z"></path> <path d="M967.4,1113.2c0,0.1,0.1,0.2,0.1,0.2C967.5,1113.4,967.4,1113.3,967.4,1113.2z"></path> <path d="M970.9,1121.7c0.1,0.1,0.1,0.3,0.2,0.4C971,1121.9,971,1121.8,970.9,1121.7z"></path> <path d="M966.6,1112c-2.3,1.2-2.9,3.3-3.4,5.6c0,0,0,0,0,0c0,0,0,0,0,0c0,0.1,0,0.2,0,0.2c0,0,0,0,0.1,0c0,0.3,0.1,0.6,0.1,0.9 c0.5,3,2.4,5,5.3,5.3c1.2,0.1,2.2,0,3.1-0.3c-0.2-0.6-0.4-1.2-0.7-1.8c-0.1-0.1-0.1-0.3-0.2-0.4c-0.5-1.4-1.1-2.7-1.6-4 c-0.1-0.2-0.1-0.4-0.2-0.5c-0.5-1.3-1.1-2.5-1.6-3.7c0-0.1-0.1-0.2-0.1-0.2c-0.2-0.4-0.4-0.9-0.6-1.3 C966.8,1112,966.7,1112,966.6,1112z"></path> <path d="M941.3,1153.3c-4-0.1-8.8,2.7-10.2,7.8c-0.9,3.4,0.5,8,4.7,9c1.6,0.4,3.2,0.5,4.8,0.8c3.8,0.6,7.7-1.5,9.4-5 C953.1,1159.6,947.1,1152.8,941.3,1153.3z"></path> <path d="M915,1140.1c-1.6,2.1-1,4.5-0.4,6.8c1.1,4.1,4,6.3,7.8,6.2c2.9-0.1,6.3-2.4,7.6-5c0.7-1.5,1-3,1.2-4.6 c0.3-2.4-0.4-4.4-2.1-6C924.5,1133,918.4,1135.4,915,1140.1z"></path> <path d="M930.2,1188.8c-0.7-0.5-1.6-0.9-2.4-1c-3-0.5-5.7,0.4-7.9,2.5c-2.7,2.5-3.6,6.3-2.2,9.8c1.4,3.4,4.5,5.5,8,5.5 c0.9-0.2,1.8-0.2,2.7-0.5c2.4-0.7,4.3-2.2,5.3-4.4C935.1,1197,933.4,1191.4,930.2,1188.8z"></path> <path d="M985.3,1174.6C985.3,1174.6,985.3,1174.6,985.3,1174.6C985.3,1174.6,985.3,1174.6,985.3,1174.6z"></path> <polygon points="983.7,1166.2 983.7,1166.2 983.7,1166.2 "></polygon> <path d="M982.2,1166c-3.1,0.1-5.4,2-6,5c-0.7,3.6,1,10.4,6.6,11.9c1.1,0.3,2.6,0.3,3.9,0.1c-0.5-2.9-0.9-5.7-1.4-8.4c0,0,0,0,0,0 c-0.5-2.9-1.1-5.7-1.6-8.4c0,0,0,0,0,0C983.2,1166.1,982.7,1166,982.2,1166z"></path> <path d="M951.6,1141.7c0.1,3.5,3.1,6.2,6.7,6c3.5-0.2,6-3.2,6-6.7c-0.1-3.6-4.3-6.4-7-6.4C954.1,1134.7,951.5,1138,951.6,1141.7z"></path> <path d="M789.1,1124.3C789.1,1124.3,789.1,1124.3,789.1,1124.3c0.5-1.2,0.6-2.4,0.4-3.6c-0.6,1.9-1.2,3.8-1.8,5.7 C788.3,1125.8,788.7,1125.1,789.1,1124.3z"></path> <path d="M842.8,1122.3c0.5,5.3,4.4,8.1,9.6,7.6c4.1-0.4,7.1-4.4,6.3-8.4c0,0,0,0,0,0c0-0.7,0.2-1.5,0-2.1c-1.1-3-3.1-4.9-6.4-5.2 c-5-0.5-8.8,2.6-9.5,7.9c0,0,0,0,0,0c0,0,0,0,0,0C842.7,1122.2,842.7,1122.3,842.8,1122.3C842.7,1122.4,842.8,1122.3,842.8,1122.3 z"></path> <path d="M801.3,1125c1.8,4.2,7.1,5.7,10.9,3.2c1.8-1.2,2.7-3,2.7-5.1c0,0,0,0,0,0c0.2-2.3-0.3-4.3-2.1-5.9c-2.3-2-6-2.9-8.8,0 c-1.9,1.9-3.1,4-3.2,6.7c0.1,0,0.2,0,0.3,0C801.1,1124.3,801.2,1124.7,801.3,1125z"></path> <path d="M820.9,1096.5c1.4,2.5,3.3,3.2,6.2,3.1c2.7,0,5-1.6,6.8-3.9c3.4-4.4,1.9-11.2-3.7-13.4c-5.4-2.2-13.1,1.9-11.4,9.6 C819.2,1093.6,820.1,1095,820.9,1096.5z"></path> <path d="M877.4,1097.5c0.9-0.1,1.9-0.1,2.8-0.4c2.9-1.2,4.6-4.4,4.3-7.5c-0.3-2.4-2.1-3.5-3.7-4.7c-3.8-2.9-9.4-0.9-10.3,3.7 C869.4,1093.4,872.1,1098,877.4,1097.5z"></path> <path d="M899.5,1126.1c0,0.1,0,0.3,0,0.4c3.7,0.7,5.5-0.4,7.2-3.4c0.5-0.9,1.1-2-0.4-2.7c-0.1,0-0.1-0.2-0.1-0.3 c0.2,0,0.5,0,0.7,0c0.5-0.4,0.7-0.9,0.5-1.6c-0.5-1.5-0.9-3.1-1.3-4.6c-0.6-1.9-2.5-3.2-4.5-3c-0.9,0.1-1.7,0.4-2.6,0.6 c0,0.3,0,0.5,0,0.8c-2.7,2-4.4,4.6-4,8.3c0,0,0.1,0,0.1,0C895.3,1123.3,897.2,1124.9,899.5,1126.1z"></path> <path d="M954.6,1094.4c-0.2-0.4-0.4-0.8-0.8-1.5c2.1,0.5,2.2-0.8,2.3-2c0.1-1.1,0.3-2.2,0.5-3.3c0.6-2.6-1-5.2-3.7-5.4 c-1.3-0.1-2.7,0.1-4,0.5c-5.2,1.5-8.1,7.2-4.9,12C946.8,1098.5,952.3,1098.6,954.6,1094.4z"></path> <path d="M915.8,1100.5c2,1.5,4.1,1.3,6.1,0.2c2-1.1,3.2-3,2.9-5.4c-0.1-1.3-0.2-2.6-1.5-3.4c-0.2-0.1-0.3-0.5-0.4-0.7 c-0.9-1.7-2.1-3.1-4-3.6c-3.2-0.8-6.5,1.7-7,5.2C911.3,1096.2,913.2,1098.5,915.8,1100.5z"></path> </g> <g> <g> <g> <g> <path class="st0" d="M1608.2,1357.9c1.4,0.3,2.6,0.7,3.5,1.2c0.9,0.5,1.1,1.4,0.5,2.6c-1.8,4.2-3.9,8.2-6.4,12.1 c-2.5,3.9-5.7,7.3-9.6,10.2c-2.3,1.6-4.9,3-7.9,4.2c-2.9,1.2-6.2,2.2-9.7,3c0,0.2-0.1,0.3-0.3,0.5c-5,9.1-10.5,16.4-16.5,21.7 c-6,5.4-12.1,9.1-18.3,11.2c-6.1,2.1-12.1,2.6-17.9,1.4c-5.8-1.1-10.9-3.6-15.5-7.4c-4.5-3.8-8.2-8.9-11.1-15.1 c-2.8-6.2-4.4-13.6-4.5-22.1c-0.4-8.5,0.7-16.8,3.1-24.9c2.4-8.2,5.3-15.3,8.8-21.6c3.5-6.2,7.2-11.2,11.3-14.9 c4.1-3.7,7.7-5.4,10.9-5.3c2.5-5.1,6.8-8.6,12.9-10.3c6.1-1.8,12-2.1,17.7-1c5.5,1,10.6,3,15.3,6.1c4.7,3.1,8.3,7,10.8,11.6 c2,3.7,3.3,7.8,4.1,12.5c0.8,4.6,1.1,9.5,0.8,14.5c-0.3,5-0.9,10.2-2,15.3c-1.1,5.2-2.5,10.2-4.3,15l2.1-1 c3.7-2.2,6.7-5,9.1-8.3c2.3-3.3,4.2-6.8,5.6-10.4c0.5-1.3,1.5-1.9,2.8-1.8C1605.2,1357.2,1606.6,1357.5,1608.2,1357.9z M1526.4,1374.5c-3,10.9-3.8,19.3-2.3,25.2c1.5,5.9,4.2,9.6,8.1,10.9c3.9,1.4,8.5,0.5,13.9-2.6c5.3-3.1,10.3-8.4,14.9-15.9 c-6.8-1-13-3.5-18.7-7.7c-5.7-4.2-10-10.7-12.8-19.7L1526.4,1374.5z M1550.1,1321.7c1.6,1.3,2.9,2.6,3.9,3.8 c1,1.3,1.3,2.6,0.9,3.8c-2.8,1.3-5.7,3.4-8.5,6.5c-0.7,8-0.6,14.7,0.4,20.3c1,5.5,2.4,10,4.4,13.4c2,3.4,4.3,6.1,6.9,7.9 c2.7,1.8,5.5,3,8.5,3.5l3.2-8.6c1.8-5.8,3.3-11.8,4.5-18.2c1.2-6.4,1.8-12.4,1.7-17.9c-0.1-5.5-1-10.2-2.8-14 c-1.8-3.8-4.8-6.1-9.1-6.7c-2.3-0.3-4.8-0.1-7.5,0.6C1554.1,1316.8,1551.9,1318.7,1550.1,1321.7z"></path> </g> </g> <g> <g> <path class="st0" d="M1718.8,1363.9c0.5-1,1.6-1.6,3.2-1.8c1.6-0.2,3.1-0.3,4.5-0.1c1.4,0.2,2.7,0.5,3.7,1.1 c1.1,0.6,1.3,1.1,0.8,1.6c-3.7,7.4-7.8,14.1-12.3,20.1c-4.4,6.1-9.2,12.1-14.4,18c-6.9,8-13.6,13.7-20.1,17.1 c-6.5,3.4-12.1,4.6-16.9,3.6c-4.8-1-8.4-4.3-10.9-9.8c-2.5-5.5-3.2-13.2-2.1-23.1c0.9-8.2,2.4-15.9,4.5-23.4 c2.1-7.4,4.4-14.4,6.9-21c-2.3,2.4-4.8,5.4-7.5,9.1c-2.7,3.7-5.7,8.2-9.2,13.4c-3.5,5.3-7.4,11.5-11.9,18.6 c-4.4,7.1-9.6,15.3-15.5,24.6c-0.7,0.8-1.4,1.8-2.1,3.1c-0.7,1.3-1.5,2.5-2.4,3.7c-0.9,1.2-2,2.2-3.2,3.1 c-1.2,0.9-2.7,1.3-4.3,1.3c-1.4,0-2.7-0.3-3.9-0.8c-1.2-0.6-2.4-1.2-3.6-2c-2.5-1.4-4.4-3-5.9-4.8c-1.4-1.8-2.6-3.4-3.5-5 c-0.9-1.6-1.7-3.4-2.4-5.5c0.5-6.4,1.3-12.1,2.3-17.1c1-5,2.1-9.8,3.3-14.4c1.2-4.6,2.6-9.1,4-13.5c1.4-4.5,2.9-9.4,4.5-14.6 c1.6-5.1,3.5-10.5,5.7-16.2c2.2-5.7,3.1-11.2,2.5-16.4c-0.2-1.1,0.8-2.2,2.9-3.2c2.1-1,4.8-1.8,7.9-2.2c3.1-0.4,6.4-0.4,10,0.1 c3.6,0.5,6.5,1.6,8.9,3.5c2.4,1.8,4,4.5,4.7,8c0.7,3.5-0.1,8.1-2.4,13.7c-3.4,7.7-6.4,15.3-9.1,22.9 c-2.7,7.6-5.1,15.3-7.2,23.1c5.3-6.7,10.3-13.7,15.1-21c4.7-7.3,9.3-14.2,13.9-20.6c4.5-6.5,9.1-12.2,13.7-17 c4.6-4.9,9.6-8.3,14.9-10.2c5-1.6,10.1-1.8,15.5-0.6c5.3,1.2,9.9,3.4,13.6,6.6c0.9,0.8,1,1.6,0.3,2.4c-1.6,1.9-3.7,5.1-6.4,9.6 c-2.7,4.5-5.4,9.8-8.3,15.8c-2.8,6.1-5.6,12.8-8.4,20.1c-2.8,7.4-5,15-6.8,22.8c-1.1,4.8-1.8,8.6-2.1,11.3 c-0.4,2.7-0.4,4.8,0,6.1c0.4,1.4,0.9,2.1,1.7,2.2c0.8,0.1,1.8-0.3,3.1-1.1c3.2-2.7,6.1-5.7,8.8-8.9c2.7-3.2,5.2-6.4,7.5-9.6 c2.7-3.7,5.1-7.4,7.2-11C1714,1371.8,1716.3,1367.9,1718.8,1363.9z"></path> </g> </g> </g> </g> </g> </svg> 